<?xml version="1.0" encoding="UTF-8"?>
<svg version="1.1" xmlns="http://www.w3.org/2000/svg" width="512" height="512">
<path d="M0 0 C0.90045044 -0.00705963 1.80090088 -0.01411926 2.7286377 -0.02139282 C40.56271231 -0.2507174 40.56271231 -0.2507174 57.20703125 3.203125 C58.69759033 3.50911621 58.69759033 3.50911621 60.21826172 3.82128906 C116.92522511 15.81380371 171.93488599 46.2140709 207.20703125 93.203125 C207.94300537 94.18104004 207.94300537 94.18104004 208.69384766 95.17871094 C216.17006772 105.16645615 223.11651041 115.31319857 229.20703125 126.203125 C229.60486816 126.90453613 230.00270508 127.60594727 230.41259766 128.32861328 C248.66086947 160.73122155 260.21390279 198.63338691 260.41015625 235.99609375 C260.41721588 236.89654419 260.42427551 237.79699463 260.43154907 238.72473145 C260.66087365 276.55880606 260.66087365 276.55880606 257.20703125 293.203125 C256.90104004 294.69368408 256.90104004 294.69368408 256.58886719 296.21435547 C242.51250897 362.77483535 204.09457829 420.03311569 147.23681641 457.50146484 C142.97655694 460.21784308 138.61596235 462.73729689 134.20703125 465.203125 C133.50562012 465.60096191 132.80420898 465.99879883 132.08154297 466.40869141 C99.6789347 484.65696322 61.77676934 496.20999654 24.4140625 496.40625 C23.06338684 496.41683945 23.06338684 496.41683945 21.6854248 496.42764282 C-16.14864981 496.6569674 -16.14864981 496.6569674 -32.79296875 493.203125 C-34.28352783 492.89713379 -34.28352783 492.89713379 -35.80419922 492.58496094 C-102.29810922 478.52268106 -159.75561962 440.10251905 -197.10742188 383.20068359 C-199.80859884 378.94578085 -202.3224062 374.59485547 -204.79296875 370.203125 C-205.15310059 369.57712402 -205.51323242 368.95112305 -205.88427734 368.30615234 C-224.38936501 335.98545493 -235.69710889 297.67901619 -236.03125 260.33203125 C-236.04104385 259.42023102 -236.05083771 258.50843079 -236.06092834 257.56900024 C-236.23260511 237.44104818 -236.06932869 217.96420382 -231.79296875 198.203125 C-231.57866211 197.18605469 -231.36435547 196.16898438 -231.14355469 195.12109375 C-222.96279434 157.25381879 -206.04522667 122.38317423 -181.79296875 92.203125 C-181.32068848 91.61515137 -180.8484082 91.02717773 -180.36181641 90.42138672 C-169.28155041 76.78092213 -156.86582205 63.76685597 -142.79296875 53.203125 C-142.14102539 52.71247559 -141.48908203 52.22182617 -140.81738281 51.71630859 C-130.82707934 44.23817357 -120.66915508 37.32151018 -109.79296875 31.203125 C-109.16696777 30.84299316 -108.5409668 30.48286133 -107.89599609 30.11181641 C-75.65552438 11.65266164 -37.27934428 0.19581559 0 0 Z " fill="#E9CCFB" transform="translate(243.79296875,7.796875)"/>
<path d="M0 0 C0.90045044 -0.00705963 1.80090088 -0.01411926 2.7286377 -0.02139282 C40.56271231 -0.2507174 40.56271231 -0.2507174 57.20703125 3.203125 C58.69759033 3.50911621 58.69759033 3.50911621 60.21826172 3.82128906 C116.92522511 15.81380371 171.93488599 46.2140709 207.20703125 93.203125 C207.94300537 94.18104004 207.94300537 94.18104004 208.69384766 95.17871094 C216.17006772 105.16645615 223.11651041 115.31319857 229.20703125 126.203125 C229.60486816 126.90453613 230.00270508 127.60594727 230.41259766 128.32861328 C248.66086947 160.73122155 260.21390279 198.63338691 260.41015625 235.99609375 C260.41721588 236.89654419 260.42427551 237.79699463 260.43154907 238.72473145 C260.66087365 276.55880606 260.66087365 276.55880606 257.20703125 293.203125 C256.90104004 294.69368408 256.90104004 294.69368408 256.58886719 296.21435547 C242.51250897 362.77483535 204.09457829 420.03311569 147.23681641 457.50146484 C142.97655694 460.21784308 138.61596235 462.73729689 134.20703125 465.203125 C133.50562012 465.60096191 132.80420898 465.99879883 132.08154297 466.40869141 C99.6789347 484.65696322 61.77676934 496.20999654 24.4140625 496.40625 C23.06338684 496.41683945 23.06338684 496.41683945 21.6854248 496.42764282 C-16.14864981 496.6569674 -16.14864981 496.6569674 -32.79296875 493.203125 C-34.28352783 492.89713379 -34.28352783 492.89713379 -35.80419922 492.58496094 C-102.29810922 478.52268106 -159.75561962 440.10251905 -197.10742188 383.20068359 C-199.80859884 378.94578085 -202.3224062 374.59485547 -204.79296875 370.203125 C-205.15310059 369.57712402 -205.51323242 368.95112305 -205.88427734 368.30615234 C-224.38936501 335.98545493 -235.69710889 297.67901619 -236.03125 260.33203125 C-236.04104385 259.42023102 -236.05083771 258.50843079 -236.06092834 257.56900024 C-236.23260511 237.44104818 -236.06932869 217.96420382 -231.79296875 198.203125 C-231.57866211 197.18605469 -231.36435547 196.16898438 -231.14355469 195.12109375 C-222.96279434 157.25381879 -206.04522667 122.38317423 -181.79296875 92.203125 C-181.32068848 91.61515137 -180.8484082 91.02717773 -180.36181641 90.42138672 C-169.28155041 76.78092213 -156.86582205 63.76685597 -142.79296875 53.203125 C-142.14102539 52.71247559 -141.48908203 52.22182617 -140.81738281 51.71630859 C-130.82707934 44.23817357 -120.66915508 37.32151018 -109.79296875 31.203125 C-109.16696777 30.84299316 -108.5409668 30.48286133 -107.89599609 30.11181641 C-75.65552438 11.65266164 -37.27934428 0.19581559 0 0 Z M-127.79296875 105.203125 C-128.71851563 106.07582031 -129.6440625 106.94851562 -130.59765625 107.84765625 C-137.75078031 114.76774652 -143.92323577 122.19126437 -149.79296875 130.203125 C-150.20901367 130.76950684 -150.62505859 131.33588867 -151.05371094 131.91943359 C-183.73767054 177.08343011 -193.08092073 230.89450291 -184.79296875 285.203125 C-184.66970215 286.01265625 -184.54643555 286.8221875 -184.41943359 287.65625 C-176.51932276 336.0510387 -145.22141702 381.75085285 -105.79296875 410.203125 C-105.22175293 410.61868652 -104.65053711 411.03424805 -104.06201172 411.46240234 C-77.09077815 430.85719183 -45.6147973 442.75786093 -12.79296875 447.203125 C-12.13167969 447.29811279 -11.47039062 447.39310059 -10.7890625 447.4909668 C39.13126394 453.94638214 92.38631089 439.17656704 132.27978516 408.70605469 C148.06652088 396.39504061 162.47450398 382.46176832 174.20703125 366.203125 C174.62259277 365.63190918 175.0381543 365.06069336 175.46630859 364.47216797 C192.23930019 341.14692001 204.48568713 313.59290666 209.20703125 285.203125 C209.35221191 284.40261719 209.49739258 283.60210937 209.64697266 282.77734375 C218.62611303 232.54816752 207.6904116 179.30749871 178.92578125 137.06640625 C171.74193275 126.7727881 163.87807191 117.27053853 155.20703125 108.203125 C154.33304687 107.27628906 153.4590625 106.34945312 152.55859375 105.39453125 C145.64003641 98.24265013 138.21730332 92.07169416 130.20703125 86.203125 C129.64064941 85.78708008 129.07426758 85.37103516 128.49072266 84.94238281 C111.70558341 72.79543269 92.90865836 63.51941301 73.20703125 57.203125 C72.50932617 56.97044922 71.81162109 56.73777344 71.09277344 56.49804688 C1.16168054 33.46115001 -75.59247052 55.34951565 -127.79296875 105.203125 Z " fill="#F1EBFF" transform="translate(243.79296875,7.796875)"/>
<path d="M0 0 C19.62128404 -0.83538894 36.6815528 6.07265584 51.25 19.23046875 C63.02968597 30.44611819 71.66293905 46.89754257 72.33668518 63.34686279 C72.36527314 65.82691316 72.36244029 68.3049856 72.34765625 70.78515625 C72.34553383 72.13747849 72.34553383 72.13747849 72.34336853 73.51712036 C72.3377974 76.37993775 72.32525026 79.24267523 72.3125 82.10546875 C72.30748127 84.05338428 72.30291901 86.00130105 72.29882812 87.94921875 C72.28783742 92.70966593 72.27059277 97.47005382 72.25 102.23046875 C73.07491943 102.21669189 73.89983887 102.20291504 74.74975586 102.1887207 C76.37216187 102.17264771 76.37216187 102.17264771 78.02734375 102.15625 C79.09976318 102.14247314 80.17218262 102.12869629 81.27709961 102.11450195 C85.00057293 102.25974707 87.25640205 103.00446002 90.25 105.23046875 C92.91501211 108.91764768 93.6258268 111.47170035 93.63095093 115.99241638 C93.6394104 117.14335785 93.64786987 118.29429932 93.65658569 119.4801178 C93.64747665 121.36059059 93.64747665 121.36059059 93.63818359 123.27905273 C93.64225111 124.61979601 93.647594 125.96053594 93.65411377 127.30126953 C93.66777329 130.93564176 93.66249414 134.56975808 93.65297651 138.2041347 C93.64537123 142.01167147 93.65242808 145.8191866 93.65713501 149.62672424 C93.6625907 156.0214531 93.65540657 162.41607796 93.64111328 168.81079102 C93.62479405 176.19704894 93.63007064 183.58305834 93.6465925 190.96931022 C93.66022105 197.31681994 93.66212014 203.66425497 93.65427649 210.0117746 C93.64960658 213.80024891 93.64895614 217.58860654 93.65888596 221.37707329 C93.66757309 224.94026401 93.66150219 228.50313546 93.64420319 232.06629181 C93.63836504 233.99262049 93.6472395 235.91897628 93.65658569 237.84529114 C93.57601705 248.83379968 93.57601705 248.83379968 90.25 253.23046875 C86.26460596 256.18956476 83.37124477 256.60678041 78.45629883 256.61141968 C77.78585195 256.61609965 77.11540506 256.62077962 76.42464161 256.62560141 C74.18523503 256.63753707 71.94644203 256.62810025 69.70703125 256.61865234 C68.0986597 256.6227187 66.49029095 256.62806094 64.88192749 256.63458252 C60.51832093 256.64825439 56.15492725 256.64295802 51.79131699 256.63344526 C47.22390928 256.62584801 42.65651975 256.63289446 38.08911133 256.63760376 C30.4190748 256.64306112 22.74912494 256.63587022 15.07910156 256.62158203 C6.21253291 256.60525555 -2.65382878 256.61054407 -11.52039242 256.62706125 C-19.13411448 256.64067668 -26.74777425 256.6425955 -34.36150455 256.63474524 C-38.90838577 256.63006904 -43.45516972 256.62944242 -48.00204468 256.63935471 C-52.27682555 256.64802292 -56.55133969 256.64200518 -60.82609177 256.62467194 C-62.39462211 256.62070631 -63.96317492 256.62184246 -65.53169632 256.62845993 C-67.67353318 256.63666283 -69.8145163 256.62637013 -71.95629883 256.61141968 C-73.15458817 256.6102886 -74.3528775 256.60915752 -75.58747864 256.60799217 C-79.08391418 256.19060802 -80.94141811 255.31579918 -83.75 253.23046875 C-88.0100153 247.59914539 -87.17086449 240.78825085 -87.13818359 234.05249023 C-87.14225236 232.70997695 -87.14759596 231.36746701 -87.15411377 230.02496338 C-87.16775573 226.39071734 -87.16250212 222.75672764 -87.15297651 219.12247729 C-87.14536524 215.31447852 -87.15242945 211.50650125 -87.15713501 207.69850159 C-87.16258763 201.30555289 -87.15541325 194.91270828 -87.14111328 188.51977539 C-87.12478067 181.13290874 -87.13008159 173.74629043 -87.1465925 166.35942978 C-87.16021313 160.01106628 -87.16212443 153.66277746 -87.15427649 147.31440407 C-87.14960403 143.5254176 -87.14896346 139.73654782 -87.15888596 135.94756889 C-87.16756206 132.38600936 -87.1615223 128.82476967 -87.14420319 125.26324463 C-87.13835496 123.33554014 -87.14724793 121.40780854 -87.15658569 119.4801178 C-87.14389648 117.7537056 -87.14389648 117.7537056 -87.13095093 115.99241638 C-87.12981985 114.99453315 -87.12868877 113.99664991 -87.12752342 112.96852779 C-86.54314054 108.73018195 -84.81913291 106.0936391 -81.51953125 103.4296875 C-77.99391532 101.90308088 -75.26480479 101.93566114 -71.4375 102.04296875 C-70.18324219 102.07003906 -68.92898437 102.09710938 -67.63671875 102.125 C-66.68410156 102.15980469 -65.73148438 102.19460937 -64.75 102.23046875 C-64.76110306 101.67495834 -64.77220612 101.11944794 -64.78364563 100.54710388 C-64.8955077 94.68952762 -64.9701839 88.83226148 -65.0246582 82.97387695 C-65.0495801 80.79666796 -65.08353046 78.61954066 -65.12719727 76.44262695 C-65.55995269 54.29064035 -61.60542037 37.06340529 -46.01147461 20.39355469 C-33.39850442 7.47766697 -17.71677223 1.08884329 0 0 Z " fill="#E9CBFB" transform="translate(252.75,127.76953125)"/>
<path d="M0 0 C19.62128404 -0.83538894 36.6815528 6.07265584 51.25 19.23046875 C63.02968597 30.44611819 71.66293905 46.89754257 72.33668518 63.34686279 C72.36527314 65.82691316 72.36244029 68.3049856 72.34765625 70.78515625 C72.34553383 72.13747849 72.34553383 72.13747849 72.34336853 73.51712036 C72.3377974 76.37993775 72.32525026 79.24267523 72.3125 82.10546875 C72.30748127 84.05338428 72.30291901 86.00130105 72.29882812 87.94921875 C72.28783742 92.70966593 72.27059277 97.47005382 72.25 102.23046875 C73.07491943 102.21669189 73.89983887 102.20291504 74.74975586 102.1887207 C76.37216187 102.17264771 76.37216187 102.17264771 78.02734375 102.15625 C79.09976318 102.14247314 80.17218262 102.12869629 81.27709961 102.11450195 C85.00057293 102.25974707 87.25640205 103.00446002 90.25 105.23046875 C92.91501211 108.91764768 93.6258268 111.47170035 93.63095093 115.99241638 C93.6394104 117.14335785 93.64786987 118.29429932 93.65658569 119.4801178 C93.64747665 121.36059059 93.64747665 121.36059059 93.63818359 123.27905273 C93.64225111 124.61979601 93.647594 125.96053594 93.65411377 127.30126953 C93.66777329 130.93564176 93.66249414 134.56975808 93.65297651 138.2041347 C93.64537123 142.01167147 93.65242808 145.8191866 93.65713501 149.62672424 C93.6625907 156.0214531 93.65540657 162.41607796 93.64111328 168.81079102 C93.62479405 176.19704894 93.63007064 183.58305834 93.6465925 190.96931022 C93.66022105 197.31681994 93.66212014 203.66425497 93.65427649 210.0117746 C93.64960658 213.80024891 93.64895614 217.58860654 93.65888596 221.37707329 C93.66757309 224.94026401 93.66150219 228.50313546 93.64420319 232.06629181 C93.63836504 233.99262049 93.6472395 235.91897628 93.65658569 237.84529114 C93.57601705 248.83379968 93.57601705 248.83379968 90.25 253.23046875 C86.26460596 256.18956476 83.37124477 256.60678041 78.45629883 256.61141968 C77.78585195 256.61609965 77.11540506 256.62077962 76.42464161 256.62560141 C74.18523503 256.63753707 71.94644203 256.62810025 69.70703125 256.61865234 C68.0986597 256.6227187 66.49029095 256.62806094 64.88192749 256.63458252 C60.51832093 256.64825439 56.15492725 256.64295802 51.79131699 256.63344526 C47.22390928 256.62584801 42.65651975 256.63289446 38.08911133 256.63760376 C30.4190748 256.64306112 22.74912494 256.63587022 15.07910156 256.62158203 C6.21253291 256.60525555 -2.65382878 256.61054407 -11.52039242 256.62706125 C-19.13411448 256.64067668 -26.74777425 256.6425955 -34.36150455 256.63474524 C-38.90838577 256.63006904 -43.45516972 256.62944242 -48.00204468 256.63935471 C-52.27682555 256.64802292 -56.55133969 256.64200518 -60.82609177 256.62467194 C-62.39462211 256.62070631 -63.96317492 256.62184246 -65.53169632 256.62845993 C-67.67353318 256.63666283 -69.8145163 256.62637013 -71.95629883 256.61141968 C-73.15458817 256.6102886 -74.3528775 256.60915752 -75.58747864 256.60799217 C-79.08391418 256.19060802 -80.94141811 255.31579918 -83.75 253.23046875 C-88.0100153 247.59914539 -87.17086449 240.78825085 -87.13818359 234.05249023 C-87.14225236 232.70997695 -87.14759596 231.36746701 -87.15411377 230.02496338 C-87.16775573 226.39071734 -87.16250212 222.75672764 -87.15297651 219.12247729 C-87.14536524 215.31447852 -87.15242945 211.50650125 -87.15713501 207.69850159 C-87.16258763 201.30555289 -87.15541325 194.91270828 -87.14111328 188.51977539 C-87.12478067 181.13290874 -87.13008159 173.74629043 -87.1465925 166.35942978 C-87.16021313 160.01106628 -87.16212443 153.66277746 -87.15427649 147.31440407 C-87.14960403 143.5254176 -87.14896346 139.73654782 -87.15888596 135.94756889 C-87.16756206 132.38600936 -87.1615223 128.82476967 -87.14420319 125.26324463 C-87.13835496 123.33554014 -87.14724793 121.40780854 -87.15658569 119.4801178 C-87.14389648 117.7537056 -87.14389648 117.7537056 -87.13095093 115.99241638 C-87.12981985 114.99453315 -87.12868877 113.99664991 -87.12752342 112.96852779 C-86.54314054 108.73018195 -84.81913291 106.0936391 -81.51953125 103.4296875 C-77.99391532 101.90308088 -75.26480479 101.93566114 -71.4375 102.04296875 C-70.18324219 102.07003906 -68.92898437 102.09710938 -67.63671875 102.125 C-66.68410156 102.15980469 -65.73148438 102.19460937 -64.75 102.23046875 C-64.76110306 101.67495834 -64.77220612 101.11944794 -64.78364563 100.54710388 C-64.8955077 94.68952762 -64.9701839 88.83226148 -65.0246582 82.97387695 C-65.0495801 80.79666796 -65.08353046 78.61954066 -65.12719727 76.44262695 C-65.55995269 54.29064035 -61.60542037 37.06340529 -46.01147461 20.39355469 C-33.39850442 7.47766697 -17.71677223 1.08884329 0 0 Z M-79.12711525 109.91267204 C-81.13062407 112.77407434 -81.25046924 114.34105933 -81.25120544 117.81642151 C-81.26103958 118.95349548 -81.27087372 120.09056946 -81.28100586 121.26210022 C-81.27133789 122.50535568 -81.26166992 123.74861115 -81.25170898 125.02954102 C-81.25711197 126.34203827 -81.26251495 127.65453552 -81.26808167 129.00680542 C-81.28204202 132.60393089 -81.27086351 136.20057836 -81.25437045 139.79767728 C-81.24052111 143.56124323 -81.24697978 147.32478141 -81.25050354 151.08836365 C-81.25320543 157.40753892 -81.23973086 163.72652422 -81.21655273 170.0456543 C-81.1899315 177.35414027 -81.18819955 184.66230883 -81.1999411 191.97082669 C-81.21071466 198.99959921 -81.20453591 206.02825679 -81.19038582 213.05702019 C-81.18462347 216.04940441 -81.18471059 219.04170458 -81.18945122 222.03409004 C-81.19510315 226.20983335 -81.17591725 230.38510123 -81.15405273 234.56079102 C-81.15855438 235.80607071 -81.16305603 237.0513504 -81.16769409 238.33436584 C-81.15778946 239.46862 -81.14788483 240.60287415 -81.13768005 241.77149963 C-81.13525016 242.7590754 -81.13282026 243.74665117 -81.13031673 244.76415348 C-80.91405522 247.22823257 -80.91405522 247.22823257 -79.62906742 249.04826546 C-76.83717757 250.80476516 -74.57976072 250.60515694 -71.29724121 250.60469055 C-70.6393427 250.60866496 -69.9814442 250.61263936 -69.30360937 250.61673421 C-67.09476584 250.62637385 -64.88656014 250.61452967 -62.67773438 250.6027832 C-61.09597026 250.60521063 -59.51420768 250.60892947 -57.93244934 250.61384583 C-53.63289425 250.62326523 -49.33356638 250.61382064 -45.03402901 250.6005137 C-40.53908369 250.58921284 -36.04414978 250.59330565 -31.54919434 250.59526062 C-24.00004353 250.59614403 -16.45098245 250.58505343 -8.90185547 250.56665039 C-0.16824312 250.54548204 8.56523776 250.54197261 17.29887056 250.54821235 C25.69289165 250.55390291 34.08686634 250.54826398 42.48088074 250.5370388 C46.05658321 250.53238873 49.63225735 250.53152073 53.20796204 250.53362465 C57.41700452 250.53550541 61.62591281 250.52742003 65.8349247 250.51156425 C67.38171649 250.50731416 68.92852187 250.50647571 70.475317 250.50925446 C72.58277338 250.51246659 74.68982633 250.50341935 76.79724121 250.49116516 C78.5681525 250.48808586 78.5681525 250.48808586 80.37483978 250.48494434 C83.44831357 250.44433674 83.44831357 250.44433674 86.25 248.23046875 C86.70664311 245.75328628 86.70664311 245.75328628 86.63095093 242.80909729 C86.64364014 241.08236786 86.64364014 241.08236786 86.65658569 239.320755 C86.650513 238.05160751 86.64444031 236.78246002 86.63818359 235.47485352 C86.64224707 234.12968519 86.64758769 232.7845202 86.65411377 231.43936157 C86.66782135 227.78022154 86.66247437 224.12133452 86.65297651 220.46218991 C86.64539607 216.637216 86.65242116 212.81226416 86.65713501 208.98728943 C86.66259796 202.56204326 86.65538757 196.13690042 86.64111328 189.71166992 C86.62479261 182.27940442 86.63006876 174.84738587 86.6465925 167.41512638 C86.66020035 161.03969887 86.66213027 154.66434577 86.65427649 148.28890842 C86.64959519 144.47868771 86.64898742 140.66858311 86.65888596 136.85836983 C86.66754299 133.27552976 86.66155722 129.69300838 86.64420319 126.11020279 C86.63833417 124.16537669 86.64726517 122.22052368 86.65658569 120.27571106 C86.64812622 119.12173828 86.63966675 117.9677655 86.63095093 116.77882385 C86.62981985 115.77390176 86.62868877 114.76897966 86.62752342 113.73360538 C86.41815602 111.23680939 86.41815602 111.23680939 85.12669468 109.40792656 C82.34788163 107.66447028 80.10746165 107.84955946 76.8419342 107.8427887 C76.18882482 107.83740316 75.53571543 107.83201762 74.86281484 107.82646888 C72.67015275 107.81213936 70.47809014 107.81930491 68.28540039 107.82641602 C66.71510837 107.82071501 65.14482049 107.8137518 63.57453918 107.80561829 C59.30592983 107.78764143 55.03752554 107.78886375 50.76888967 107.79456067 C47.20762565 107.79764611 43.6464014 107.79156725 40.08514303 107.78552192 C31.6847396 107.77146334 23.28443784 107.77304895 14.8840332 107.78442383 C6.21284518 107.79590579 -2.45803359 107.78183118 -11.12918085 107.75502735 C-18.56960416 107.73288756 -26.00993028 107.7262291 -33.4503842 107.73210377 C-37.89614073 107.73547876 -42.34169901 107.73302248 -46.7874279 107.71585274 C-50.9678505 107.70041304 -55.14781419 107.70430568 -59.32821846 107.72315788 C-60.86330704 107.72685211 -62.3984294 107.72371102 -63.93348694 107.71327209 C-66.02784074 107.70011615 -68.1206632 107.71155877 -70.21495056 107.72926331 C-71.38726195 107.72947259 -72.55957335 107.72968187 -73.76740932 107.7298975 C-76.81721281 108.01963558 -76.81721281 108.01963558 -79.12711525 109.91267204 Z " fill="#682891" transform="translate(252.75,127.76953125)"/>
<path d="M0 0 C0.98871094 0.75796875 1.97742188 1.5159375 2.99609375 2.296875 C13.39793308 10.57003603 23.62207901 19.65398981 32 30 C32.87441023 31.02784577 33.74947293 32.05513665 34.625 33.08203125 C58.55082603 61.57349031 74.5642469 97.19041375 80 134 C80.11424316 134.75587402 80.22848633 135.51174805 80.34619141 136.29052734 C86.29109801 177.48212466 79.40607812 220.71497797 61 258 C60.51877686 258.98105713 60.51877686 258.98105713 60.02783203 259.98193359 C51.65202689 276.84839748 40.84107202 291.74498351 28.1484375 305.62890625 C26.23772896 307.73763367 24.39699852 309.88780105 22.5625 312.0625 C-1.63796338 339.61041977 -36.5421949 356.53624226 -71 367 C-71.72219727 367.22558594 -72.44439453 367.45117188 -73.18847656 367.68359375 C-123.09758164 383.0248154 -180.68706628 372.86971573 -226.0625 348.9375 C-240.44169469 341.11983482 -253.64257646 331.23500647 -265.66015625 320.15234375 C-267.96430584 318.03283386 -270.31995434 315.98564658 -272.6875 313.9375 C-276.84692812 310.22734809 -280.46411308 306.30245616 -284 302 C-284.43183594 301.4858252 -284.86367188 300.97165039 -285.30859375 300.44189453 C-293.11467878 291.13118133 -299.95431581 281.54041787 -306 271 C-306.44730469 270.22446777 -306.89460938 269.44893555 -307.35546875 268.64990234 C-334.53666135 220.88295359 -341.07225436 163.97994772 -327 111 C-318.21582806 79.61916145 -303.18435224 51.22401002 -281.07421875 27.26171875 C-279.19878414 25.21675333 -277.40967467 23.12380525 -275.625 21 C-267.55960423 11.78769015 -257.87317816 4.17484817 -248 -3 C-247.44924805 -3.40186523 -246.89849609 -3.80373047 -246.33105469 -4.21777344 C-218.00200745 -24.62192179 -184.59445792 -36.8850299 -150 -41 C-149.14019531 -41.11085937 -148.28039062 -41.22171875 -147.39453125 -41.3359375 C-95.28833949 -46.89994643 -41.49010374 -31.95625662 0 0 Z M-266 23 C-266.92554688 23.87269531 -267.85109375 24.74539062 -268.8046875 25.64453125 C-275.95781156 32.56462152 -282.13026702 39.98813937 -288 48 C-288.41604492 48.56638184 -288.83208984 49.13276367 -289.26074219 49.71630859 C-321.94470179 94.88030511 -331.28795198 148.69137791 -323 203 C-322.8767334 203.80953125 -322.7534668 204.6190625 -322.62646484 205.453125 C-314.72635401 253.8479137 -283.42844827 299.54772785 -244 328 C-243.42878418 328.41556152 -242.85756836 328.83112305 -242.26904297 329.25927734 C-215.2978094 348.65406683 -183.82182855 360.55473593 -151 365 C-150.33871094 365.09498779 -149.67742187 365.18997559 -148.99609375 365.2878418 C-99.07576731 371.74325714 -45.82072036 356.97344204 -5.92724609 326.50292969 C9.85948963 314.19191561 24.26747273 300.25864332 36 284 C36.41556152 283.42878418 36.83112305 282.85756836 37.25927734 282.26904297 C54.03226894 258.94379501 66.27865588 231.38978166 71 203 C71.14518066 202.19949219 71.29036133 201.39898437 71.43994141 200.57421875 C80.41908178 150.34504252 69.48338035 97.10437371 40.71875 54.86328125 C33.5349015 44.5696631 25.67104066 35.06741353 17 26 C16.12601562 25.07316406 15.25203125 24.14632812 14.3515625 23.19140625 C7.43300516 16.03952513 0.01027207 9.86856916 -8 4 C-8.56638184 3.58395508 -9.13276367 3.16791016 -9.71630859 2.73925781 C-26.50144784 -9.40769231 -45.29837289 -18.68371199 -65 -25 C-65.69770508 -25.23267578 -66.39541016 -25.46535156 -67.11425781 -25.70507812 C-137.04535071 -48.74197499 -213.79950177 -26.85360935 -266 23 Z " fill="#FEFDFE" transform="translate(382,90)"/>
<path d="M0 0 C12.3541975 9.58111464 21.48726842 23.35014682 24.37011719 38.83203125 C25.12392384 46.6208548 24.84671704 54.45775898 24.68261719 62.26953125 C24.65747734 64.36911377 24.63467432 66.46872562 24.61425781 68.56835938 C24.56406818 73.65758813 24.46614328 78.74264825 24.37011719 83.83203125 C16.45011719 83.83203125 8.53011719 83.83203125 0.37011719 83.83203125 C0.34433594 80.91617188 0.31855469 78.0003125 0.29199219 74.99609375 C0.2534775 72.14297211 0.20834775 69.29002546 0.16259766 66.43701172 C0.1345338 64.46834804 0.1132474 62.49957474 0.09912109 60.53076172 C0.07748814 57.68530742 0.03073649 54.84115112 -0.02050781 51.99609375 C-0.02173645 51.12900787 -0.02296509 50.261922 -0.02423096 49.36856079 C-0.26816612 38.97565211 -4.42080979 30.25439046 -11.62988281 22.83203125 C-21.64245694 14.44855967 -31.98052446 12.81420491 -44.67236328 13.625 C-53.67322234 14.57694917 -61.70874447 20.14892497 -67.41894531 26.96875 C-73.09488611 34.9793758 -75.06856639 42.96013906 -75.14160156 52.6796875 C-75.15955276 53.57699081 -75.17750397 54.47429413 -75.19599915 55.39878845 C-75.24965612 58.23065662 -75.28385315 61.06236067 -75.31738281 63.89453125 C-75.35059538 65.82879867 -75.38508861 67.76304455 -75.42089844 69.69726562 C-75.50773902 74.40887194 -75.56818719 79.11976217 -75.62988281 83.83203125 C-83.54988281 83.83203125 -91.46988281 83.83203125 -99.62988281 83.83203125 C-99.67607345 78.19420694 -99.71581425 72.55705299 -99.73974609 66.91918945 C-99.74973455 65.00575522 -99.76332997 63.09233598 -99.78076172 61.17895508 C-99.97988472 38.74247846 -96.99707004 22.57319765 -81.38769531 5.359375 C-59.39423211 -16.22680184 -24.91569334 -17.85450523 0 0 Z " fill="#E8CAFA" transform="translate(293.6298828125,146.16796875)"/>
<path d="M0 0 C7.8739159 4.56815501 13.44987928 10.69360407 16.71484375 19.20898438 C18.54032359 27.00587217 17.89502548 35.23355844 17.75 43.1875 C17.6675 49.58125 17.585 55.975 17.5 62.5625 C-3.62 62.5625 -24.74 62.5625 -46.5 62.5625 C-46.5825 56.16875 -46.665 49.775 -46.75 43.1875 C-46.78641602 41.19025879 -46.82283203 39.19301758 -46.86035156 37.13525391 C-46.99581014 24.54923034 -45.99145268 15.04813945 -36.875 5.61328125 C-26.30936603 -3.51000466 -12.79284416 -5.76647142 0 0 Z " fill="#E9CBFB" transform="translate(270.5,167.4375)"/>
<path d="M0 0 C3.36824812 1.95358391 5.58773934 3.86379167 8.125 6.8125 C8.888125 7.6375 9.65125 8.4625 10.4375 9.3125 C13.2779927 15.20389228 13.38609453 22.07046715 11.2890625 28.29296875 C10.32868548 30.21733324 9.27787927 31.99902932 8.125 33.8125 C6.67347706 36.1240934 6.00592073 37.20527967 6.54052734 39.93139648 C6.8442627 40.67462158 7.14799805 41.41784668 7.4609375 42.18359375 C7.78320312 43.00537109 8.10546875 43.82714844 8.4375 44.67382812 C8.788125 45.52396484 9.13875 46.37410156 9.5 47.25 C10.18198724 48.93317526 10.85672012 50.61931181 11.5234375 52.30859375 C11.98242432 53.42512329 11.98242432 53.42512329 12.45068359 54.56420898 C13.2110292 57.09933668 13.31269867 59.17936386 13.125 61.8125 C11.17636075 63.76113925 8.2269128 62.9416874 5.63378906 62.95144653 C4.72338867 62.9494223 3.81298828 62.94739807 2.875 62.9453125 C1.94655273 62.94626923 1.01810547 62.94722595 0.06152344 62.94821167 C-1.90559965 62.94889355 -3.87272496 62.94703872 -5.83984375 62.94287109 C-8.86203026 62.93752295 -11.88406815 62.94281582 -14.90625 62.94921875 C-16.81250033 62.94855797 -18.71875057 62.94727681 -20.625 62.9453125 C-21.99060059 62.94834885 -21.99060059 62.94834885 -23.38378906 62.95144653 C-29.76005031 62.92744969 -29.76005031 62.92744969 -30.875 61.8125 C-30.42064964 55.04938311 -28.44003494 49.63534577 -25.78320312 43.4609375 C-24.12181229 39.59036349 -24.12181229 39.59036349 -24.56640625 35.54296875 C-24.99824219 34.97191406 -25.43007812 34.40085937 -25.875 33.8125 C-30.16602984 27.06274138 -31.1589029 20.76880739 -29.875 12.8125 C-27.3460533 6.83656429 -23.54966828 2.83898975 -17.875 -0.1875 C-12.28633024 -2.05038992 -5.54453288 -2.16163506 0 0 Z " fill="#E7C9FA" transform="translate(264.875,276.1875)"/>
<path d="M0 0 C3.36824812 1.95358391 5.58773934 3.86379167 8.125 6.8125 C8.888125 7.6375 9.65125 8.4625 10.4375 9.3125 C13.2779927 15.20389228 13.38609453 22.07046715 11.2890625 28.29296875 C10.32868548 30.21733324 9.27787927 31.99902932 8.125 33.8125 C6.67347706 36.1240934 6.00592073 37.20527967 6.54052734 39.93139648 C6.8442627 40.67462158 7.14799805 41.41784668 7.4609375 42.18359375 C7.78320312 43.00537109 8.10546875 43.82714844 8.4375 44.67382812 C8.788125 45.52396484 9.13875 46.37410156 9.5 47.25 C10.18198724 48.93317526 10.85672012 50.61931181 11.5234375 52.30859375 C11.98242432 53.42512329 11.98242432 53.42512329 12.45068359 54.56420898 C13.2110292 57.09933668 13.31269867 59.17936386 13.125 61.8125 C11.17636075 63.76113925 8.2269128 62.9416874 5.63378906 62.95144653 C4.72338867 62.9494223 3.81298828 62.94739807 2.875 62.9453125 C1.94655273 62.94626923 1.01810547 62.94722595 0.06152344 62.94821167 C-1.90559965 62.94889355 -3.87272496 62.94703872 -5.83984375 62.94287109 C-8.86203026 62.93752295 -11.88406815 62.94281582 -14.90625 62.94921875 C-16.81250033 62.94855797 -18.71875057 62.94727681 -20.625 62.9453125 C-21.99060059 62.94834885 -21.99060059 62.94834885 -23.38378906 62.95144653 C-29.76005031 62.92744969 -29.76005031 62.92744969 -30.875 61.8125 C-30.42064964 55.04938311 -28.44003494 49.63534577 -25.78320312 43.4609375 C-24.12181229 39.59036349 -24.12181229 39.59036349 -24.56640625 35.54296875 C-24.99824219 34.97191406 -25.43007812 34.40085937 -25.875 33.8125 C-30.16602984 27.06274138 -31.1589029 20.76880739 -29.875 12.8125 C-27.3460533 6.83656429 -23.54966828 2.83898975 -17.875 -0.1875 C-12.28633024 -2.05038992 -5.54453288 -2.16163506 0 0 Z M-22.3125 11.5 C-24.33545836 15.78867172 -24.56964252 19.15086285 -23.875 23.8125 C-22.5453339 27.33611517 -21.39608155 29.33484192 -18.625 31.875 C-18.0475 32.514375 -17.47 33.15375 -16.875 33.8125 C-17.31089377 38.42784581 -19.26586073 42.71424271 -20.9375 47 C-23.02835599 51.77283101 -23.02835599 51.77283101 -23.875 56.8125 C-13.975 56.8125 -4.075 56.8125 6.125 56.8125 C3.78807043 50.40628655 3.78807043 50.40628655 1.42749023 44.00878906 C1.14075439 43.20666992 0.85401855 42.40455078 0.55859375 41.578125 C0.26009521 40.76118164 -0.03840332 39.94423828 -0.34594727 39.10253906 C-0.9420104 36.52244112 -0.83953716 35.26125621 0.125 32.8125 C1.77133943 30.7957342 3.43767723 28.79510426 5.125 26.8125 C6.67055576 22.17583273 7.28784976 17.33120363 5.18359375 12.7734375 C2.74240705 9.17670475 0.24439178 6.40408319 -3.875 4.8125 C-11.74578923 3.62445634 -16.9198167 5.55422097 -22.3125 11.5 Z " fill="#682891" transform="translate(264.875,276.1875)"/>
</svg>
