<?xml version="1.0" encoding="UTF-8"?>
<svg version="1.1" xmlns="http://www.w3.org/2000/svg" width="512" height="512">
<path d="M0 0 C26.59019553 -0.28035119 53.18016953 -0.49194602 79.77154541 -0.62174606 C92.11854461 -0.68361749 104.46462545 -0.76796376 116.81103516 -0.90527344 C127.57254172 -1.02489966 138.33338325 -1.10230257 149.09553623 -1.12906194 C154.79419344 -1.1447045 160.49094818 -1.18144534 166.18899536 -1.26876068 C171.55431836 -1.35031017 176.91695875 -1.37532279 182.28284264 -1.35729218 C184.25017578 -1.36058961 186.21759993 -1.38441254 188.18439674 -1.4304657 C203.05396453 -1.76151876 203.05396453 -1.76151876 207.83404541 2.56533051 C209.88473694 5.62780577 211.41714779 8.67838615 213 12 C214.42937522 13.91322908 215.9037605 15.7943711 217.4375 17.625 C218.56478516 18.97271484 218.56478516 18.97271484 219.71484375 20.34765625 C222.67650126 23.78520403 225.68731033 27.17207479 228.74609375 30.5234375 C230.2742196 32.20252205 231.78685858 33.89580823 233.28515625 35.6015625 C236.73924941 39.52370602 240.19188398 43.30189251 244.125 46.75 C244.76695312 47.31589844 245.40890625 47.88179687 246.0703125 48.46484375 C247.94558444 50.04535849 247.94558444 50.04535849 250.0546875 51.12890625 C252.49216474 52.61194963 253.59095911 53.47923877 255 56 C255.87318378 61.95117185 255.39460074 68.02461733 255 74 C254.25234375 74.02578125 253.5046875 74.0515625 252.734375 74.078125 C251.25710938 74.16320312 251.25710938 74.16320312 249.75 74.25 C248.77546875 74.29640625 247.8009375 74.3428125 246.796875 74.390625 C243.18068464 75.17851005 242.19708751 76.01297432 240 79 C239.38564598 82.04102806 239.39507605 85.04568933 239.390625 88.140625 C239.37408875 89.02280701 239.35755249 89.90498901 239.34051514 90.81390381 C239.29200806 93.6260065 239.27065845 96.43756832 239.25 99.25 C239.22184254 101.15888142 239.19191543 103.06773761 239.16015625 104.9765625 C239.08624846 109.65099714 239.03669045 114.32513106 239 119 C244.28 119 249.56 119 255 119 C255 124.28 255 129.56 255 135 C249.72 135 244.44 135 239 135 C239.09349456 140.64197837 239.1995795 146.28352556 239.31738281 151.92504883 C239.35568577 153.84457904 239.39053633 155.76418135 239.421875 157.68383789 C239.46749702 160.4418313 239.5254958 163.19932777 239.5859375 165.95703125 C239.60326431 167.24623222 239.60326431 167.24623222 239.62094116 168.56147766 C239.6507457 169.76238289 239.6507457 169.76238289 239.68115234 170.98754883 C239.70113785 172.04344963 239.70113785 172.04344963 239.7215271 173.12068176 C239.91244185 175.33097464 239.91244185 175.33097464 242 178 C246.29 178.66 250.58 179.32 255 180 C255 204.42 255 228.84 255 254 C170.85 254 86.7 254 0 254 C0 243.11 0 232.22 0 221 C2.475 219.02 2.475 219.02 5 217 C8.98333935 210.7725258 8.48830831 204.37860013 8.44604492 197.26000977 C8.43753488 195.07147098 8.46633265 192.88554722 8.49804688 190.69726562 C8.62356038 180.65591166 8.62356038 180.65591166 4 172 C3.30548737 171.61597015 2.61097473 171.23194031 1.89541626 170.83627319 C-0.55447853 168.46282298 -0.49832361 166.60530826 -0.56433105 163.28807068 C-0.55937622 162.51189896 -0.55442139 161.73572723 -0.54931641 160.93603516 C-0.5646492 159.70384499 -0.5646492 159.70384499 -0.58029175 158.44676208 C-0.60812534 155.7272336 -0.60616743 153.00871661 -0.6015625 150.2890625 C-0.60933497 148.3996035 -0.61800401 146.51014798 -0.62753296 144.62069702 C-0.64246675 140.6578235 -0.64186907 136.69530628 -0.63134766 132.73242188 C-0.61976443 127.65541109 -0.65359651 122.57986106 -0.700037 117.50309181 C-0.72951432 113.59965496 -0.73125486 109.69656966 -0.72501755 105.79304123 C-0.72604414 103.92153406 -0.73652326 102.05000726 -0.75664139 100.17860794 C-0.78134283 97.55902815 -0.76781304 94.94228881 -0.74462891 92.32275391 C-0.75991638 91.55063065 -0.77520386 90.77850739 -0.79095459 89.98298645 C-0.73381535 87.05959436 -0.61589228 84.71765915 1.33777714 82.44117546 C2.82544515 81.20921201 4.41016379 80.09695528 6 79 C9.55715374 74.11155506 8.33297361 67.15715132 8.31567383 61.35595703 C8.31252012 59.13914534 8.33596548 56.92367751 8.36132812 54.70703125 C8.36360208 53.28646 8.36430417 51.8658852 8.36328125 50.4453125 C8.36626221 49.16156738 8.36924316 47.87782227 8.37231445 46.55517578 C7.9602159 42.62010747 7.13400989 40.32021782 5 37 C4.14815628 36.43950958 3.29631256 35.87901917 2.4186554 35.30154419 C0 33 0 33 -0.56762695 29.51660156 C-0.5668403 28.14102198 -0.53887353 26.76527413 -0.48828125 25.390625 C-0.48120651 24.66381531 -0.47413177 23.93700562 -0.46684265 23.18817139 C-0.4389273 20.87438543 -0.37620383 18.56305002 -0.3125 16.25 C-0.28741299 14.67842046 -0.26460051 13.10680284 -0.24414062 11.53515625 C-0.18911132 7.6891648 -0.10286666 3.84499735 0 0 Z M93 55 C92.07832031 55.44214844 91.15664062 55.88429688 90.20703125 56.33984375 C71.96613487 65.6275216 58.11166432 81.95907865 51.71777344 101.38989258 C45.09979182 122.70107555 46.49766453 144.60016828 56.79931641 164.46044922 C59.93131613 170.17881908 63.58094844 175.19703824 68 180 C68.74894531 180.84046875 69.49789062 181.6809375 70.26953125 182.546875 C85.01947332 198.27379223 105.66758536 206.2611595 126.98828125 206.99609375 C147.2233048 207.26279068 165.97889341 199.21368889 181 186 C181.76183594 185.33355469 182.52367187 184.66710937 183.30859375 183.98046875 C194.32487033 173.68970086 200.53327103 161.17240106 205 147 C205.26683594 146.1646875 205.53367187 145.329375 205.80859375 144.46875 C210.89774154 124.5333297 206.01746221 103.12875734 196.00390625 85.67431641 C193.66680189 81.77649012 191.06714773 78.34764235 188 75 C187.17628906 74.09636719 186.35257813 73.19273437 185.50390625 72.26171875 C179.55669588 66.02769256 173.516533 61.19297083 166 57 C165.21238281 56.53980469 164.42476563 56.07960938 163.61328125 55.60546875 C154.43221043 50.58243662 143.43496273 47.69566418 133 47 C132.23300781 46.9484375 131.46601563 46.896875 130.67578125 46.84375 C117.60313038 46.37477598 104.68599758 49.19832369 93 55 Z " fill="#9A55F2" transform="translate(84,163)"/>
<path d="M0 0 C1.28047652 -0.00128164 1.28047652 -0.00128164 2.58682126 -0.00258917 C5.44577555 -0.00423561 8.30467111 0.00126375 11.16362 0.00672913 C13.21359252 0.0070112 15.26356514 0.00685286 17.3135376 0.00628662 C22.87918855 0.00599945 28.444818 0.01188325 34.01046395 0.01886058 C39.82674822 0.02510744 45.64303297 0.02569897 51.45932007 0.02688599 C62.47352415 0.02999536 73.48771831 0.03820347 84.50191802 0.04823548 C97.04109274 0.05940881 109.58026794 0.06491014 122.1194464 0.06993091 C147.91371744 0.08038639 173.70797969 0.09797824 199.50224304 0.12025452 C199.78546165 0.95785561 199.78546165 0.95785561 200.07440186 1.81237793 C200.95166622 4.39503314 201.8382275 6.97440839 202.72489929 9.55384827 C203.16992798 10.87080688 203.16992798 10.87080688 203.62394714 12.21437073 C205.90807941 18.82874171 208.69877142 25.00915953 212.00700378 31.17042542 C214.50224304 35.85211001 214.50224304 35.85211001 214.50224304 39.12025452 C212.92161843 39.12245436 212.92161843 39.12245436 211.309062 39.12469864 C185.69650693 39.16125585 160.08408301 39.22065562 134.47163677 39.30415726 C122.08575911 39.34400606 109.69994552 39.37636883 97.31401062 39.39125061 C86.52135525 39.40423689 75.72884052 39.43112392 64.93626434 39.47486758 C59.21900039 39.49755055 53.50191034 39.51316111 47.7845974 39.51213837 C42.40752391 39.51139578 37.03083583 39.5291842 31.653862 39.56142235 C29.67653217 39.56996794 27.69915934 39.57163995 25.72181892 39.56605721 C23.02928934 39.55946561 20.33800358 39.57722041 17.64559937 39.60127258 C16.46224055 39.58963196 16.46224055 39.58963196 15.2549755 39.57775617 C10.94457852 39.62956109 10.94457852 39.62956109 7.51610088 42.02507496 C6.39864399 44.33434629 6.1351412 45.79538694 6.1492157 48.35047913 C6.14373215 49.58712563 6.14373215 49.58712563 6.13813782 50.84875488 C6.14743317 51.7311232 6.15672852 52.61349152 6.16630554 53.52259827 C6.15379464 55.40085694 6.14075759 57.27911217 6.12724304 59.15736389 C6.12331084 62.11118219 6.12727722 65.06466174 6.14189148 68.01844788 C6.15046467 70.87451114 6.12877677 73.72915952 6.10380554 76.58509827 C6.11714935 77.46544235 6.13049316 78.34578644 6.14424133 79.25280762 C6.06949535 85.46348879 6.06949535 85.46348879 3.15214539 88.84120178 C1.84044373 89.96933289 1.84044373 89.96933289 0.50224304 91.12025452 C-2.18458312 95.47121024 -2.88108927 98.71951235 -2.89619446 103.80384827 C-2.90006165 105.06132874 -2.90392883 106.3188092 -2.90791321 107.61439514 C-2.89631165 108.91570374 -2.88471008 110.21701233 -2.87275696 111.55775452 C-2.88435852 112.85519592 -2.89596008 114.15263733 -2.90791321 115.48939514 C-2.96190345 124.76264953 -2.96190345 124.76264953 0.50224304 133.12025452 C1.35047134 133.66827225 2.19869965 134.21628998 3.07263184 134.78091431 C5.91587468 137.51851787 6.10762343 139.1482503 6.19099426 143.02006531 C6.18244415 143.80199249 6.17389404 144.58391968 6.16508484 145.38954163 C6.17545273 146.22090134 6.18582062 147.05226105 6.19650269 147.90881348 C6.22359559 150.65557801 6.21390637 153.4007483 6.20146179 156.14759827 C6.20736989 158.05804897 6.21461627 159.96849596 6.22314453 161.87893677 C6.23502948 165.88299344 6.22831005 169.88649442 6.20903015 173.89051819 C6.18615282 179.02022693 6.21290721 184.14827826 6.25409222 189.27782345 C6.27967715 193.22331998 6.27708832 197.16842039 6.26619911 201.1139698 C6.26471259 203.00500047 6.27240057 204.89606152 6.28944969 206.78701591 C6.30943077 209.43288781 6.29102928 212.0758355 6.26274109 214.72157288 C6.28331573 215.89142731 6.28331573 215.89142731 6.30430603 217.08491516 C6.24167897 220.01803399 6.13718327 222.38755551 4.16341019 224.66522121 C2.66738973 225.89092008 1.08702889 227.01171099 -0.49775696 228.12025452 C-3.57594656 233.55232117 -2.86981466 239.80139836 -2.86836243 245.87538147 C-2.87272298 247.91684738 -2.90904562 249.95612532 -2.94697571 251.99720764 C-2.9691451 259.47937729 -2.79212528 264.87458551 1.50224304 271.12025452 C2.54553772 271.67398743 2.54553772 271.67398743 3.60990906 272.23890686 C6.30259989 274.91596473 5.98618993 277.06971656 6.03094482 280.7611084 C6.0227623 281.65177505 6.01457977 282.54244171 6.00614929 283.46009827 C6.01557053 284.37860062 6.02499176 285.29710297 6.03469849 286.24343872 C6.0634101 289.18177011 6.0664245 292.11929398 6.06474304 295.05775452 C6.06834812 297.99252684 6.07786135 300.9267096 6.10549927 303.86135864 C6.12231202 305.68764789 6.12514422 307.51413132 6.11248779 309.3404541 C6.11937119 310.17134048 6.12625458 311.00222687 6.13334656 311.85829163 C6.1323848 312.58648605 6.13142303 313.31468048 6.13043213 314.06494141 C6.62520919 316.79999233 7.6161303 318.08981303 9.50224304 320.12025452 C11.67894566 320.717616 11.67894566 320.717616 14.15778351 320.62361908 C15.60086876 320.63926556 15.60086876 320.63926556 17.07310724 320.65522814 C18.66194609 320.64184381 18.66194609 320.64184381 20.28288269 320.62818909 C21.9680179 320.63754903 21.9680179 320.63754903 23.68719625 320.64709806 C27.47145849 320.66311995 31.2550848 320.65038736 35.03935242 320.63783264 C37.74426613 320.6410482 40.44915238 320.6502246 43.15405273 320.65907288 C49.75010194 320.67688585 56.34596937 320.67300585 62.94202578 320.66142231 C68.30140276 320.65239913 73.66072869 320.65115914 79.02011108 320.65551758 C79.78206279 320.65613051 80.54401449 320.65674344 81.32905564 320.65737495 C82.87680886 320.65865381 84.42456206 320.65995067 85.97231525 320.66126531 C100.49528121 320.67267924 115.01814627 320.6595447 129.54109567 320.63806385 C142.01012893 320.6201921 154.47901325 320.62329599 166.94804382 320.64173889 C181.41802948 320.6631313 195.88792664 320.67158053 210.35792589 320.65928984 C211.90007558 320.6580156 213.44222528 320.65675812 214.984375 320.65551758 C216.12260984 320.65459192 216.12260984 320.65459192 217.28383932 320.65364757 C222.63853772 320.65018977 227.99318014 320.65603225 233.34786987 320.66543579 C239.87097519 320.6766391 246.39388791 320.67365113 252.91697109 320.65231282 C256.24708471 320.6417794 259.5766099 320.63986128 262.90676308 320.65090942 C266.51203487 320.66177101 270.11639065 320.64821394 273.72160339 320.62818909 C274.78082929 320.63711197 275.84005519 320.64603486 276.93137884 320.65522814 C277.89343567 320.64479715 278.85549251 320.63436616 279.84670258 320.62361908 C280.67932192 320.62296967 281.51194127 320.62232026 282.36979151 320.62165117 C284.65765714 320.28503319 284.65765714 320.28503319 286.26916677 318.30989289 C288.10013809 315.05854083 287.92454675 311.86973894 287.90097046 308.23628235 C287.9109407 307.03671673 287.9109407 307.03671673 287.92111236 305.81291747 C287.93978058 303.13040344 287.93713453 300.44833395 287.93461609 297.76576233 C287.94363092 295.84400806 287.95395745 293.92225955 287.96549988 292.0005188 C287.99312875 286.77983269 288.0023624 281.55925551 288.00835395 276.33850574 C288.01772229 270.88385496 288.04392441 265.42928602 288.06835938 259.97468567 C288.11207047 249.64399741 288.14058912 239.31332499 288.16368276 228.98257232 C288.19070972 217.22207591 288.23462277 205.46166166 288.27997148 193.70122385 C288.37288379 169.50761192 288.44453437 145.31397421 288.50224304 121.12025452 C291.65501144 122.34706896 294.35715007 123.54637264 297.09599304 125.53822327 C297.73407898 125.98746155 298.37216492 126.43669983 299.02958679 126.89955139 C300.35025536 127.84232568 301.66535751 128.79294421 302.97489929 129.75111389 C306.70460036 132.42331567 306.70460036 132.42331567 311.11552429 133.14369202 C314.04216616 131.88873266 316.55050836 130.34004806 319.18974304 128.55775452 C324.3010358 125.12025452 324.3010358 125.12025452 326.50224304 125.12025452 C326.59572928 152.71926444 326.66624338 180.31825058 326.70949173 207.91738701 C326.7301074 220.73245922 326.75820916 233.54743299 326.80400085 246.36244202 C326.84389886 257.53341206 326.86968309 268.7043108 326.87859702 279.87535012 C326.88380669 285.78906401 326.89603097 291.70257393 326.92516327 297.61622238 C326.95237897 303.18611407 326.96067549 308.75571837 326.95467377 314.32567024 C326.95577124 316.3662084 326.96368821 318.4067565 326.97906494 320.44723701 C327.14059791 342.99471964 327.14059791 342.99471964 319.31474304 351.99525452 C313.16985251 358.1868151 305.42939376 359.57733443 297.03790861 359.65989023 C295.22564501 359.64752908 295.22564501 359.64752908 293.37677002 359.63491821 C291.42183897 359.64533651 291.42183897 359.64533651 289.42741436 359.65596527 C285.82982034 359.67452275 282.2326399 359.66831175 278.6350292 359.65781224 C274.7473982 359.6508005 270.8598505 359.66683308 266.97224426 359.67980957 C259.36401797 359.70142186 251.75594142 359.70132981 244.14769454 359.69318403 C237.96233931 359.68687734 231.77702767 359.68802718 225.5916729 359.6944561 C224.7104393 359.69535776 223.8292057 359.69625941 222.92126806 359.69718839 C221.13089616 359.69903964 219.34052428 359.7009022 217.55015241 359.70277595 C200.77125334 359.71934477 183.99243843 359.71064303 167.21354442 359.69379037 C151.87249801 359.67909432 136.53164746 359.69372208 121.19062627 359.72256053 C105.4265987 359.7519728 89.66266147 359.76292147 73.89860767 359.75337833 C72.11461478 359.75235581 70.33062187 359.7513612 68.54662895 359.75039482 C67.66893979 359.74991843 66.79125062 359.74944204 65.88696482 359.74895122 C59.71192683 359.7467895 53.53697462 359.75657825 47.36195564 359.77116585 C39.83237551 359.78870574 32.30304504 359.78854813 24.77347464 359.76581419 C20.93414014 359.75468692 17.09524523 359.7514746 13.25592995 359.7701149 C9.08849297 359.79008742 4.92212283 359.77110167 0.75469971 359.7484436 C-0.45124531 359.76027933 -1.65719032 359.77211506 -2.89967912 359.78430945 C-11.41378741 359.69034533 -18.23314138 358.01702269 -24.64325517 352.15981776 C-32.36807471 344.17609005 -32.93871023 335.86058442 -32.88543701 325.22892761 C-32.89082255 323.93874533 -32.89620809 322.64856304 -32.90175682 321.31928432 C-32.91617411 317.75369484 -32.91197845 314.18833724 -32.90459001 310.62273526 C-32.89985137 306.77122931 -32.91237437 302.91977301 -32.92260742 299.06828308 C-32.93978738 291.52878806 -32.94063707 283.98937641 -32.93539452 276.44986691 C-32.93134994 270.32027189 -32.9327998 264.19070148 -32.93814278 258.06110764 C-32.9388912 257.18806463 -32.93963962 256.31502163 -32.94041072 255.41552278 C-32.94194223 253.64182036 -32.94348058 251.86811794 -32.94502569 250.09441553 C-32.95874793 233.46766343 -32.95331508 216.84095841 -32.94184048 200.2142074 C-32.93190932 185.01215459 -32.94484722 169.81022351 -32.96877467 154.60818948 C-32.99317322 138.98884385 -33.00277162 123.36955491 -32.99612194 107.75019062 C-32.99263128 98.9850726 -32.99485162 90.22004819 -33.01237297 81.45494461 C-33.02710444 73.99307843 -33.02771811 66.53137177 -33.01030206 59.06950869 C-33.00179725 55.26466368 -32.99962954 51.4601035 -33.01495361 47.65527344 C-33.03138151 43.52513498 -33.01663638 39.39568195 -32.9989624 35.26554871 C-33.00856741 34.07059442 -33.01817242 32.87564013 -33.02806848 31.6444751 C-32.95471168 23.30496494 -31.55535139 16.35045217 -26.60322571 9.49916077 C-18.45817849 1.78541952 -11.1444597 -0.04084545 0 0 Z " fill="#A24DF3" transform="translate(64.49775695800781,109.87974548339844)"/>
<path d="M0 0 C3.65308547 1.60632127 6.46402218 3.8784429 9.5625 6.375 C36.84214735 27.68356574 69.63239369 42.96289781 102.5703125 53.1953125 C105 54 105 54 106 55 C107.87725036 99.11538351 83.38775231 142.9890994 55 175 C54.51241211 175.55075195 54.02482422 176.10150391 53.52246094 176.66894531 C40.3472998 191.45774182 25.50139653 203.81692824 9.375 215.25 C8.69993408 215.74040771 8.02486816 216.23081543 7.3293457 216.73608398 C2.53872243 220.06571556 2.53872243 220.06571556 0.0065918 219.75683594 C-2.06663682 218.97486627 -3.67968979 218.06669638 -5.50390625 216.8125 C-6.48278809 216.14250977 -6.48278809 216.14250977 -7.48144531 215.45898438 C-8.16819336 214.97751953 -8.85494141 214.49605469 -9.5625 214 C-10.27631836 213.50306641 -10.99013672 213.00613281 -11.72558594 212.49414062 C-22.18888125 205.13544306 -31.73876552 196.80769156 -41 188 C-41.56654297 187.46213867 -42.13308594 186.92427734 -42.71679688 186.37011719 C-50.77615429 178.66252178 -58.08499137 170.67811387 -64.72509766 161.71484375 C-65.95870539 160.05554449 -67.21730975 158.41810396 -68.48046875 156.78125 C-89.69912874 128.77329269 -105.4465498 90.57121667 -105 55 C-104.18249268 54.7097998 -103.36498535 54.41959961 -102.52270508 54.12060547 C-82.36462046 46.90814422 -63.03844107 38.80931302 -44 29 C-43.10055664 28.53851563 -42.20111328 28.07703125 -41.27441406 27.6015625 C-26.49117755 19.93402922 -12.93851702 10.4687716 0 0 Z M-18.73046875 72.56640625 C-23.63353309 77.78423521 -26.03385913 83.85025599 -26.375 91 C-25.88985711 100.42296764 -21.73973421 106.58938232 -15 113 C-14.34 113.33 -13.68 113.66 -13 114 C-12.9906543 115.11971191 -12.98130859 116.23942383 -12.97167969 117.39306641 C-12.93167839 121.56436316 -12.86589195 125.73493022 -12.79248047 129.90576172 C-12.76432947 131.70774939 -12.74308578 133.50985919 -12.72900391 135.31201172 C-12.70749245 137.90916198 -12.66080243 140.50485295 -12.609375 143.1015625 C-12.60814636 143.9017984 -12.60691772 144.7020343 -12.60565186 145.52651978 C-12.46907932 150.79265335 -11.44775944 153.8003952 -8 158 C-4.61382596 160.8218117 -1.50428257 161.63925105 2.93359375 161.49609375 C6.78540026 160.57136894 9.41489576 157.89231952 12 155 C13.63582313 151.72835374 13.07185274 148.11215102 13.03515625 144.51953125 C13.03887102 142.78059305 13.04480176 141.04165844 13.05273438 139.30273438 C13.06327043 136.5611554 13.0626357 133.82217087 13.02416992 131.08081055 C12.83174291 115.77109613 12.83174291 115.77109613 15.73779297 111.36547852 C17.7423073 109.66400417 19.7449622 108.33996645 22 107 C26.42327177 101.22210126 27.81275657 95.16819593 27.48828125 87.96484375 C26.03083394 79.11522368 21.10042252 73.18921751 14.1875 67.8125 C2.74778053 61.30756148 -9.30971019 64.03881216 -18.73046875 72.56640625 Z " fill="#4B99E8" transform="translate(374,8)"/>
<path d="M0 0 C5.919621 3.0128537 11.494924 7.82425879 13.8125 14.2265625 C15.27285421 21.60656679 15.66673098 30.08909636 11.640625 36.6953125 C6.42304826 43.23193954 0.4365009 47.53927845 -7.90234375 48.75 C-14.87965579 49.14239716 -21.26363316 47.08007449 -26.83203125 42.859375 C-33.07995639 37.01920918 -34.89996875 31.92825984 -35.1875 23.5 C-35.00828192 15.82620776 -33.30277314 11.47323022 -28.4375 5.6875 C-20.14769944 -1.25279814 -10.38916974 -4.17708887 0 0 Z " fill="#9757F1" transform="translate(221.75,266.5625)"/>
<path d="M0 0 C22.44 0 44.88 0 68 0 C66.35 6.6 64.7 13.2 63 20 C44.19 20 25.38 20 6 20 C3 12 3 12 0 0 Z " fill="#9955F2" transform="translate(288,484)"/>
<path d="M0 0 C22.44 0 44.88 0 68 0 C63 19 63 19 62 20 C60.22008076 20.09370624 58.43643261 20.11744271 56.65405273 20.11352539 C55.5129454 20.11344986 54.37183807 20.11337433 53.19615173 20.11329651 C51.9545076 20.10813522 50.71286346 20.10297394 49.43359375 20.09765625 C47.53795433 20.09553383 47.53795433 20.09553383 45.60401917 20.09336853 C42.23875111 20.08870582 38.8735501 20.0797148 35.50830078 20.06866455 C32.0765033 20.05844846 28.64469891 20.05387049 25.21289062 20.04882812 C18.47523936 20.0377738 11.73762889 20.02049637 5 20 C3.35 13.4 1.7 6.8 0 0 Z " fill="#D81EFA" transform="translate(67,484)"/>
<path d="M0 0 C0.94166016 -0.02384766 1.88332031 -0.04769531 2.85351562 -0.07226562 C7.51313344 -0.06240052 9.85708458 0.05351833 13.71875 2.83984375 C15.58106938 5.5899213 16.18294661 6.49027784 15.625 9.6875 C15.53347656 10.35007812 15.44195312 11.01265625 15.34765625 11.6953125 C14.181692 14.4681031 13.28543417 15.1927059 10.5625 16.5625 C7.24380084 17.02715609 3.97151603 17.02642619 0.625 17 C-0.71594727 17.0299707 -0.71594727 17.0299707 -2.08398438 17.06054688 C-6.30170654 17.05741568 -8.81686295 16.91905285 -12.53125 14.78515625 C-14.53835454 12.44490526 -15.10051329 11.5897238 -15 8.5625 C-15.00128906 7.9025 -15.00257813 7.2425 -15.00390625 6.5625 C-12.90265142 -0.85710326 -6.41359354 -0.07432249 0 0 Z " fill="#8963F0" transform="translate(263.4375,281.4375)"/>
<path d="M0 0 C1.41829102 -0.01643555 1.41829102 -0.01643555 2.86523438 -0.03320312 C9.66990459 0.03893119 9.66990459 0.03893119 13.0546875 2.34765625 C14.49353903 4.65225743 15.00526054 5.86910478 15 8.5625 C15.02191406 9.2225 15.04382813 9.8825 15.06640625 10.5625 C14.01817893 13.89599308 12.44606867 14.83409249 9.4375 16.5625 C6.0688133 17.11277684 2.78068475 17.0761184 -0.625 17 C-1.52283203 17.00708984 -2.42066406 17.01417969 -3.34570312 17.02148438 C-7.03817824 16.98579502 -9.78921627 16.95150665 -13.1171875 15.27734375 C-14.74773379 13.34272261 -15.28008578 12.1844846 -15.625 9.6875 C-15.73972656 9.03007812 -15.85445312 8.37265625 -15.97265625 7.6953125 C-14.37783711 -0.59774702 -6.70308305 -0.16975638 0 0 Z " fill="#A64AF3" transform="translate(159.5625,281.4375)"/>
<path d="M0 0 C5.29028372 3.81127967 12.80231097 9.56442061 14.56640625 16.09765625 C14.55910025 19.77257444 14.25780803 21.67969306 11.9375 24.5625 C8.00868494 26.48511163 6.21922593 26.10430209 2 25 C-0.60087361 23.19679943 -2.7061432 21.04436935 -4.875 18.75 C-5.45507812 18.17636719 -6.03515625 17.60273438 -6.6328125 17.01171875 C-9.66848364 13.89802803 -11.92960971 11.5675479 -12 7 C-9.61547841 1.09547034 -6.62181292 -1.90059347 0 0 Z " fill="#945AF1" transform="translate(247,314)"/>
<path d="M0 0 C2.4375 1.5 2.4375 1.5 4 4 C4.84407986 10.59350908 4.84407986 10.59350908 2.88793945 13.85302734 C1.33023609 15.67414513 -0.30976056 17.30378558 -2.0625 18.9375 C-2.62388672 19.51306641 -3.18527344 20.08863281 -3.76367188 20.68164062 C-7.61488362 24.41841636 -10.43464316 25.94648695 -16 26 C-18.9375 24.5625 -18.9375 24.5625 -21 22 C-21.84768541 17.76157296 -22.00393029 15.57213717 -19.66796875 11.9140625 C-17.88057616 9.80792496 -16.00119454 7.90328874 -14 6 C-13.41347656 5.39414062 -12.82695312 4.78828125 -12.22265625 4.1640625 C-8.30949162 0.3839987 -5.63609439 -1.06341404 0 0 Z " fill="#A848F4" transform="translate(183,314)"/>
<path d="M0 0 C2.4375 1.5 2.4375 1.5 4 4 C4.84407986 10.59350908 4.84407986 10.59350908 2.88793945 13.85302734 C1.33023609 15.67414513 -0.30976056 17.30378558 -2.0625 18.9375 C-2.62388672 19.51306641 -3.18527344 20.08863281 -3.76367188 20.68164062 C-7.60988124 24.41356263 -10.43766801 25.9665323 -16 26 C-19.14797818 24.22070799 -20.59507626 22.96169389 -22 19.625 C-22 13.68640993 -18.45771891 10.27217687 -14.5 6.25 C-9.70976471 1.55556942 -6.95426305 -0.73202769 0 0 Z " fill="#8765F0" transform="translate(257,240)"/>
<path d="M0 0 C5.28595104 3.84432803 12.79700926 9.54478601 14.56640625 16.09765625 C14.55910025 19.77257444 14.25780803 21.67969306 11.9375 24.5625 C8.01265142 26.48317058 6.21762104 26.0895521 2 25 C-0.62619018 23.26680788 -2.74603519 21.18431754 -4.9375 18.9375 C-5.52595703 18.38900391 -6.11441406 17.84050781 -6.72070312 17.27539062 C-9.76342381 14.22560207 -11.38197748 12.12361232 -11.4765625 7.72265625 C-11 4 -11 4 -9.4375 1.5 C-5.78266663 -0.74912822 -4.2567785 -0.89255033 0 0 Z " fill="#9C53F2" transform="translate(173,240)"/>
<path d="M0 0 C2.24548108 1.65560785 2.91647686 2.52525548 3.40405273 5.29663086 C3.43595226 8.17786999 3.45780471 11.05607725 3.4375 13.9375 C3.4674707 15.44086914 3.4674707 15.44086914 3.49804688 16.97460938 C3.49317696 24.27461445 3.49317696 24.27461445 1.19140625 27.66015625 C-2.05186351 29.64311797 -4.28008911 29.53141584 -8 29 C-10.90717073 26.78136971 -11.83981643 25.48055071 -13 22 C-13.12139491 19.54387046 -13.17542192 17.08409804 -13.1875 14.625 C-13.20167969 13.31789063 -13.21585938 12.01078125 -13.23046875 10.6640625 C-12.95619387 6.30355682 -12.24720619 3.38578465 -9.3125 0.125 C-5.89855615 -1.53583755 -3.61242777 -0.91952707 0 0 Z " fill="#A14FF3" transform="translate(216,328)"/>
<path d="M0 0 C2.1953125 1.33203125 2.1953125 1.33203125 4 4 C4.57497178 7.69553193 4.51190081 11.33045932 4.4375 15.0625 C4.44458984 16.06861328 4.45167969 17.07472656 4.45898438 18.11132812 C4.39504471 25.47422634 4.39504471 25.47422634 2.68383789 27.75170898 C-0.1301085 29.83779103 -2.55571673 29.94061581 -6 30 C-8.69357729 28.41898724 -10.51338267 27.31600914 -11.62109375 24.3203125 C-12.15441873 21.05438429 -12.17110796 17.87041279 -12.1875 14.5625 C-12.20876953 12.61537109 -12.20876953 12.61537109 -12.23046875 10.62890625 C-12.01246115 7.19621028 -11.63795538 4.99838343 -10 2 C-6.2794164 -0.48038907 -4.40203429 -0.46337203 0 0 Z " fill="#8F5DF1" transform="translate(215,223)"/>
</svg>
