<?xml version="1.0" encoding="UTF-8"?>
<svg version="1.1" xmlns="http://www.w3.org/2000/svg" width="512" height="512">
<path d="M0 0 C13.85784385 11.12914289 24.24921864 24.72942123 30.3125 41.5 C30.55500488 42.16330322 30.79750977 42.82660645 31.04736328 43.51000977 C34.48554584 53.56821237 35.2987992 63.76521261 35.1953125 74.328125 C35.1924826 75.44314392 35.18965271 76.55816284 35.18673706 77.70697021 C35.17566202 81.22142895 35.15058194 84.73562005 35.125 88.25 C35.11495379 90.65234003 35.10583084 93.05468412 35.09765625 95.45703125 C35.07576442 101.30477674 35.04241595 107.15236924 35 113 C35.64437012 112.97905273 36.28874023 112.95810547 36.95263672 112.93652344 C39.92659332 112.85239002 42.90029842 112.80103655 45.875 112.75 C46.88820312 112.71648437 47.90140625 112.68296875 48.9453125 112.6484375 C57.86328677 112.5341045 65.21081412 114.21603899 71.9375 120.3125 C76.36838096 124.80870107 78.17168389 129.86178046 78.29296875 136.05859375 C78.2732632 137.85179887 78.23783238 139.64489308 78.1875 141.4375 C78.17396484 142.35982422 78.16042969 143.28214844 78.14648438 144.23242188 C78.11140953 146.48890383 78.06226387 148.74413226 78 151 C77.3596431 151.00142502 76.71928619 151.00285004 76.05952454 151.00431824 C69.39186827 151.02401147 62.72512794 151.07827753 56.05786133 151.15258789 C53.56997245 151.17577856 51.08198526 151.19016607 48.59399414 151.19555664 C45.01646573 151.2048378 41.44048621 151.24581411 37.86328125 151.29296875 C36.75165115 151.2890361 35.64002106 151.28510345 34.4947052 151.28105164 C28.09335814 151.25512601 28.09335814 151.25512601 22.75854492 154.3449707 C20.70664205 156.91214196 20.70664205 156.91214196 21 160.1875 C21.78737233 163.29023828 21.78737233 163.29023828 25 165 C27.21730183 165.3004251 27.21730183 165.3004251 29.71242332 165.25333309 C31.17455885 165.26175619 31.17455885 165.26175619 32.66623247 165.27034944 C33.73965792 165.26636835 34.81308337 165.26238726 35.91903687 165.25828552 C37.05738342 165.26196123 38.19572997 165.26563693 39.36857188 165.26942402 C43.203279 165.27944652 47.03784233 165.27524475 50.87255859 165.27124023 C53.61362693 165.27450155 56.354686 165.28081516 59.0957489 165.28707886 C65.00851313 165.29913422 70.92125039 165.30423233 76.83402634 165.30496025 C85.3884017 165.30628467 93.94271147 165.3213856 102.49706371 165.34045542 C116.38247447 165.37131202 130.26788689 165.39547051 144.15332031 165.41333008 C145.40038051 165.4149391 145.40038051 165.4149391 146.67263384 165.41658062 C155.94766834 165.42840018 165.2227035 165.43860528 174.4977417 165.44702148 C177.86047365 165.45009534 181.22320559 165.45318413 184.5859375 165.45629883 C185.83057237 165.45744684 185.83057237 165.45744684 187.10035138 165.45861804 C200.93071977 165.4716949 214.76104075 165.49632829 228.59137404 165.53004223 C237.12497709 165.55034581 245.65847876 165.56061976 254.19210614 165.55805302 C260.03890829 165.55701874 265.88563028 165.56664216 271.73240446 165.58469205 C275.10723692 165.59474716 278.48174296 165.59822135 281.85660744 165.59192467 C285.51358636 165.58581562 289.17006094 165.59795715 292.82699585 165.61473083 C293.89595986 165.60851902 294.96492387 165.6023072 296.06628072 165.59590715 C305.12462441 165.67191751 305.12462441 165.67191751 309 169 C310.16952981 171.33905963 310.15098736 172.77858237 310.19287109 175.38623047 C310.21696548 176.74806961 310.21696548 176.74806961 310.24154663 178.13742065 C310.28595129 182.28643071 310.32705005 186.43528071 310.35009766 190.58447266 C310.36667294 192.77468479 310.39398341 194.96484249 310.43212891 197.15478516 C310.48680235 200.30920528 310.50875598 203.46235786 310.5234375 206.6171875 C310.54610687 207.5964621 310.56877625 208.57573669 310.59213257 209.58468628 C310.58928253 210.49888336 310.5864325 211.41308044 310.58349609 212.35498047 C310.59158295 213.15725067 310.5996698 213.95952087 310.60800171 214.78610229 C309.64464461 218.29394453 308.11667676 219.1322507 305 221 C301.28129948 221.60141201 297.59388833 221.54196905 293.83372498 221.51225281 C292.12258352 221.52244634 292.12258352 221.52244634 290.37687355 221.5328458 C286.5458948 221.5508353 282.71552097 221.54032377 278.88452148 221.5300293 C276.14152413 221.53490188 273.39855867 221.54580377 270.65557861 221.55648804 C264.74500215 221.57639931 258.83455475 221.58183698 252.92394829 221.57755089 C244.37387996 221.57145916 235.82397645 221.58832046 227.27394152 221.61096082 C213.39625433 221.64717782 199.51859951 221.66633181 185.64086914 221.67407227 C172.17015084 221.68163558 158.6994623 221.69473266 145.22875977 221.71704102 C144.39896323 221.71841171 143.56916669 221.71978241 142.71422481 221.72119465 C133.65745474 221.7363184 124.60068824 221.75305191 115.54392338 221.77101612 C114.35037709 221.77337408 114.35037709 221.77337408 113.13271876 221.77577967 C108.3617621 221.78520589 108.3617621 221.78520589 103.59080578 221.79479728 C94.27429281 221.81361759 84.9578015 221.82749436 75.64127041 221.83259294 C69.79919802 221.83583062 63.95713468 221.8420878 58.11506777 221.8507212 C54.74245854 221.85552089 51.36988576 221.85801493 47.99727058 221.85725212 C44.34458967 221.8565879 40.69196489 221.86191441 37.03929138 221.86869812 C35.96877877 221.86694775 34.89826616 221.86519738 33.79531378 221.86339396 C32.33019168 221.86790544 32.33019168 221.86790544 30.83547115 221.87250805 C29.99216462 221.8729978 29.14885809 221.87348755 28.27999681 221.87399215 C26.05984112 221.99669278 24.13078165 222.38248162 22 223 C21.00866636 227.7249703 21.00866636 227.7249703 21.8125 232.375 C22.91985727 234.15088244 22.91985727 234.15088244 25 235 C26.69463258 235.11902812 28.39371122 235.17714687 30.09228516 235.20532227 C31.15323395 235.22526749 32.21418274 235.24521271 33.30728149 235.26576233 C34.45626923 235.28247482 35.60525696 235.29918732 36.7890625 235.31640625 C38.54940323 235.3475779 38.54940323 235.3475779 40.3453064 235.37937927 C44.10514304 235.44491983 47.86505122 235.50378076 51.625 235.5625 C54.16927832 235.60568092 56.71354933 235.64929507 59.2578125 235.69335938 C65.50513599 235.80142339 71.75251145 235.90046374 78 236 C78 246.23 78 256.46 78 267 C75.04675781 267.03738281 72.09351563 267.07476562 69.05078125 267.11328125 C66.14796096 267.15966935 63.24526088 267.21083972 60.3425293 267.26245117 C58.34586063 267.29543136 56.34910474 267.32354428 54.35229492 267.34643555 C33.42247861 267.59279201 15.00359535 270.19235783 -0.71875 285.390625 C-9.97021577 295.97278105 -15.11388343 307.59424831 -17.6015625 321.3515625 C-17.73731689 322.08930908 -17.87307129 322.82705566 -18.01293945 323.5871582 C-18.34449126 325.39097531 -18.6725989 327.1954249 -19 329 C-38.14134199 329.07016055 -57.2826578 329.12302267 -76.42410183 329.15543652 C-85.31231936 329.17088857 -94.20045688 329.19194625 -103.08862305 329.22631836 C-110.83785799 329.25627167 -118.58703496 329.27558708 -126.33632618 329.28226548 C-130.43743478 329.28616771 -134.53837758 329.29530367 -138.63943291 329.31719017 C-142.50455572 329.33764918 -146.36944542 329.34381492 -150.23461723 329.33932304 C-151.64828765 329.34014406 -153.06196638 329.34605351 -154.47558975 329.35761642 C-163.78701963 329.43000357 -173.03290388 329.37504811 -180.3125 322.8125 C-180.92738281 322.28269531 -181.54226562 321.75289063 -182.17578125 321.20703125 C-189.17262693 312.74189675 -188.57134496 304.10239508 -188.51757812 293.6953125 C-188.52300338 291.93373029 -188.5301283 290.17215262 -188.53881836 288.4105835 C-188.55700672 283.64196329 -188.55000275 278.87369043 -188.53730202 274.10506439 C-188.52715108 269.10665474 -188.53657351 264.10827415 -188.54284668 259.10986328 C-188.55011698 250.71706827 -188.54055156 242.32441422 -188.52148438 233.93164062 C-188.49971684 224.23853064 -188.50676865 214.54575724 -188.52879 204.85265541 C-188.54696156 196.51950011 -188.54949372 188.18644593 -188.53903532 179.85327721 C-188.53281006 174.8809902 -188.53193814 169.90886123 -188.54518127 164.93658447 C-188.55676472 160.26115469 -188.54866856 155.58615745 -188.52560425 150.91077423 C-188.52033047 149.19837409 -188.52180809 147.48593735 -188.53065491 145.77355194 C-188.61176749 128.47405175 -188.61176749 128.47405175 -182.140625 120.79296875 C-181.51671875 120.26316406 -180.8928125 119.73335937 -180.25 119.1875 C-179.63640625 118.64480469 -179.0228125 118.10210937 -178.390625 117.54296875 C-171.08415735 112.82719306 -164.46055809 112.60601579 -156 112.8125 C-154.93910156 112.82603516 -153.87820312 112.83957031 -152.78515625 112.85351562 C-150.18956313 112.88859121 -147.59505933 112.93774156 -145 113 C-145.00888245 112.38851105 -145.01776489 111.77702209 -145.0269165 111.14700317 C-145.11653022 104.68875639 -145.17619834 98.23069062 -145.21972656 91.77197266 C-145.23964195 89.37281095 -145.26678424 86.97369648 -145.30175781 84.57470703 C-145.72781625 54.56264954 -140.24293379 30.03386324 -118.78515625 7.75390625 C-87.02717948 -23.64773978 -35.48689778 -27.1877121 0 0 Z M-93 39.640625 C-110.3101666 60.06121217 -105 88.01509395 -105 113 C-72 113 -39 113 -5 113 C-2.37464172 71.54440963 -2.37464172 71.54440963 -19.61328125 37.32421875 C-30.10015207 27.11196321 -42.10721868 21.70976211 -56.90332031 21.87939453 C-71.30119126 22.70759065 -83.22606771 29.23836849 -93 39.640625 Z M-78 176 C-82.68864497 182.93966108 -85.0379539 190.29547288 -83.51953125 198.640625 C-81.97213745 204.35144851 -80.00206109 209.80924246 -75.05561829 213.41891479 C-71.8818702 215.74105271 -69.41994501 217.58312575 -68.27572632 221.44366455 C-68.03019763 224.32595788 -68.02195669 227.11629687 -68.10546875 230.0078125 C-68.10170731 231.05145966 -68.09794586 232.09510681 -68.09407043 233.17037964 C-68.08778392 236.4899373 -68.13474322 239.80590021 -68.1875 243.125 C-68.21372488 246.45050693 -68.22853823 249.77543292 -68.22737122 253.1010437 C-68.22939712 255.16569373 -68.24862329 257.23041681 -68.28715515 259.29470825 C-68.3525562 266.14499994 -68.3525562 266.14499994 -65 272 C-60.66214398 275.81562607 -60.66214398 275.81562607 -55.25 277.3125 C-50.18527631 276.82550734 -46.21741944 273.8947709 -43 270 C-42.0366249 267.10987471 -41.89044187 265.36110837 -41.92163086 262.36425781 C-41.92750717 261.42608215 -41.93338348 260.48790649 -41.93943787 259.52130127 C-41.94782181 258.5088031 -41.95620575 257.49630493 -41.96484375 256.453125 C-41.96113019 254.30728688 -41.95520075 252.16145166 -41.94726562 250.015625 C-41.93671443 246.63335381 -41.93746382 243.2531893 -41.97583008 239.87109375 C-42.00901008 236.60560889 -41.99133408 233.34360305 -41.96484375 230.078125 C-41.98739731 229.07372375 -42.00995087 228.06932251 -42.03318787 227.03448486 C-41.91518508 220.10406939 -41.91518508 220.10406939 -39.25564575 216.89562988 C-37.11938477 215.05371094 -37.11938477 215.05371094 -34.99684143 213.52630615 C-30.18008738 209.84457097 -27.40237018 203.98920903 -26.22265625 198.125 C-25.35904037 189.88277129 -27.37525848 182.84507763 -32 176 C-37.41859488 169.70238862 -44.28190945 165.86394826 -52.5078125 164.62109375 C-62.58052368 164.13166734 -71.46723023 168.4074698 -78 176 Z M23 203 C23 203.33 23 203.66 23 204 C28.80573738 205.35366934 34.28535154 206.05991902 40 204 C47.64587725 198.62266492 54.16300713 191.26553204 60 184 C60 183.67 60 183.34 60 183 C42.47936564 178.914878 33.42596987 190.0223898 23 203 Z M65 203 C65 203.33 65 203.66 65 204 C71.12219973 205.33091298 76.97333909 206.09382551 83 204 C90.69089804 198.6819961 97.19918275 191.2944135 103 184 C103 183.67 103 183.34 103 183 C84.87880292 179.06060933 75.82660759 189.38575407 65 203 Z M107 203 C107 203.33 107 203.66 107 204 C113.12219973 205.33091298 118.97333909 206.09382551 125 204 C132.69089804 198.6819961 139.19918275 191.2944135 145 184 C145 183.67 145 183.34 145 183 C126.87880292 179.06060933 117.82660759 189.38575407 107 203 Z M150 203 C150 203.33 150 203.66 150 204 C156.12219973 205.33091298 161.97333909 206.09382551 168 204 C175.69089804 198.6819961 182.19918275 191.2944135 188 184 C188 183.67 188 183.34 188 183 C169.87880292 179.06060933 160.82660759 189.38575407 150 203 Z M192 203 C192 203.33 192 203.66 192 204 C198.12219973 205.33091298 203.97333909 206.09382551 210 204 C217.69089804 198.6819961 224.19918275 191.2944135 230 184 C230 183.67 230 183.34 230 183 C211.87880292 179.06060933 202.82660759 189.38575407 192 203 Z M235 203 C235 203.33 235 203.66 235 204 C241.12219973 205.33091298 246.97333909 206.09382551 253 204 C260.69089804 198.6819961 267.19918275 191.2944135 273 184 C273 183.67 273 183.34 273 183 C254.87880292 179.06060933 245.82660759 189.38575407 235 203 Z M289.40234375 190.46484375 C288.68369141 191.18220703 287.96503906 191.89957031 287.22460938 192.63867188 C286.46986328 193.39728516 285.71511719 194.15589844 284.9375 194.9375 C284.17888672 195.69224609 283.42027344 196.44699219 282.63867188 197.22460938 C281.56262695 198.30258789 281.56262695 198.30258789 280.46484375 199.40234375 C279.800896 200.06741943 279.13694824 200.73249512 278.45288086 201.41772461 C276.88727548 202.76474234 276.88727548 202.76474234 277 204 C282.61 204 288.22 204 294 204 C294 198.39 294 192.78 294 187 C292.0669348 187 290.67892293 189.19042957 289.40234375 190.46484375 Z " fill="#5678FF" transform="translate(195,127)"/>
<path d="M0 0 C1.87686379 -0.00814074 3.75371799 -0.01882973 5.6305542 -0.03186035 C10.70509293 -0.05910982 15.77889611 -0.04865145 20.85344696 -0.02958584 C26.17656869 -0.01434181 31.49962957 -0.02849791 36.82275391 -0.03790283 C45.76020557 -0.04880326 54.69735926 -0.03447368 63.63476562 -0.00585938 C73.95171044 0.02679132 84.26794371 0.01621322 94.58487129 -0.01681781 C103.4599521 -0.04408982 112.33481932 -0.04786638 121.20992851 -0.03218579 C126.50312835 -0.02285578 131.79599428 -0.02151771 137.08917236 -0.04140472 C142.06685768 -0.05880176 147.04363013 -0.04659791 152.02121735 -0.01203918 C153.84242491 -0.00413985 155.66370997 -0.00632554 157.48488617 -0.01961517 C176.26598514 -0.14397796 176.26598514 -0.14397796 183.3984375 6.77636719 C190.46884618 14.41528565 190.24735031 23.10123839 190.14306641 32.93115234 C190.14793046 34.54525183 190.15537706 36.15934527 190.16519165 37.77342224 C190.18390283 42.13099228 190.16525271 46.48765546 190.13852739 50.84515429 C190.11578855 55.41779637 190.12412165 59.9903974 190.12802124 64.56307983 C190.1297834 72.23784083 190.1077022 79.91224724 190.07080078 87.58691406 C190.02844063 96.4473542 190.02145425 105.30727581 190.0339247 114.16779673 C190.04533049 122.71083491 190.03400097 131.25369137 190.01157761 139.79670334 C190.00231308 143.4241206 190.0005259 147.05142624 190.0047493 150.67885208 C190.0085285 154.95218325 189.99220594 159.22498981 189.96062851 163.49820137 C189.95217559 165.06223314 189.95041963 166.62631831 189.95600891 168.19036293 C189.98420071 177.49336132 189.84054708 184.70724015 183.43359375 192.01855469 C182.78261719 192.55738281 182.13164062 193.09621094 181.4609375 193.65136719 C180.81253906 194.20566406 180.16414062 194.75996094 179.49609375 195.33105469 C173.80136814 199.25479487 168.59723471 199.02248849 161.90771484 198.9206543 C159.7194316 198.9048557 157.53114831 198.88906313 155.34286499 198.87327576 C154.18508923 198.86124052 153.02731346 198.84920528 151.83445358 198.83680534 C145.68792852 198.78030224 139.54127547 198.78087562 133.39453125 198.77050781 C125.57942513 198.75298956 117.76532289 198.71908338 109.95068359 198.62915039 C103.62910633 198.55788283 97.30934374 198.54054221 90.98741531 198.55841255 C88.58489946 198.55529911 86.18232192 198.53251921 83.78019333 198.48927116 C69.39835469 197.65116768 69.39835469 197.65116768 56.98339272 203.61390781 C54.92243144 205.8617998 53.16581763 208.29456235 51.3984375 210.77636719 C50.02015083 212.06856311 48.60992835 213.3290832 47.1484375 214.52636719 C43.99477814 217.21851542 41.08383863 220.06941331 38.1796875 223.02636719 C35.68077291 225.48144117 33.02451169 227.73714722 30.37109375 230.02246094 C28.44914172 231.73128561 26.63789231 233.50466262 24.8359375 235.33886719 C21.55067175 238.66934302 18.20238732 242.0363189 14.3984375 244.77636719 C13.7384375 244.77636719 13.0784375 244.77636719 12.3984375 244.77636719 C12.3984375 229.59636719 12.3984375 214.41636719 12.3984375 198.77636719 C2.88527097 198.93390213 2.88527097 198.93390213 -6.62695312 199.13671875 C-15.40563115 199.20991375 -21.07588943 198.74224446 -27.84375 192.81152344 C-28.65199219 191.83505859 -28.65199219 191.83505859 -29.4765625 190.83886719 C-30.03085937 190.19046875 -30.58515625 189.54207031 -31.15625 188.87402344 C-34.28263684 184.33653768 -34.85536434 180.43709198 -34.88244629 174.97834778 C-34.88838853 174.30734517 -34.89433078 173.63634257 -34.90045309 172.94500655 C-34.91775275 170.70360239 -34.92083714 168.46241281 -34.92382812 166.22094727 C-34.93308988 164.61083524 -34.94313993 163.00072759 -34.95391846 161.390625 C-34.98012099 157.02055592 -34.9930477 152.65054824 -35.00193977 148.28041291 C-35.00780932 145.54737862 -35.01602051 142.81436096 -35.02494812 140.08133507 C-35.05228764 131.52233867 -35.07162534 122.96338046 -35.0793519 114.40434343 C-35.08830759 104.53911385 -35.12338111 94.6744393 -35.18135309 84.80937845 C-35.22465563 77.17435355 -35.24476414 69.5394844 -35.24743414 61.90433806 C-35.24952558 57.34873099 -35.26123925 52.79364601 -35.29707336 48.23816872 C-35.33015501 43.94924138 -35.33428958 39.66122513 -35.31679535 35.37221527 C-35.31526084 33.80414315 -35.32385795 32.23602083 -35.34371185 30.66807365 C-35.45300117 21.4939256 -35.12062509 13.80974051 -28.6015625 6.77636719 C-20.60489738 -0.98124621 -10.38135779 -0.07575569 0 0 Z M84.67797852 25.01098633 C83.00720574 27.31614907 83.07886373 28.63287965 83.17578125 31.45996094 C83.19624512 32.38180176 83.21670898 33.30364258 83.23779297 34.25341797 C83.27018066 35.23036621 83.30256836 36.20731445 83.3359375 37.21386719 C83.53159663 50.82426819 83.08098431 63.81639456 73.73046875 74.72167969 C72.03057312 76.26986839 70.33420077 77.53847566 68.3984375 78.77636719 C67.83898437 79.13988281 67.27953125 79.50339844 66.703125 79.87792969 C62.27093168 82.3914246 57.52069427 83.62687373 52.6171875 84.89355469 C51.92206055 85.07587646 51.22693359 85.25819824 50.51074219 85.44604492 C48.80739355 85.89236909 47.10301645 86.33476504 45.3984375 86.77636719 C45.37528217 95.85141736 45.3575061 104.92645739 45.34662533 114.00153065 C45.3414035 118.21530512 45.33431851 122.42905941 45.32299805 126.64282227 C45.31214435 130.70821519 45.30615538 134.77358868 45.30356026 138.83899498 C45.3017105 140.39115391 45.29809846 141.94331175 45.29270744 143.49546242 C45.2854641 145.66700172 45.28444796 147.83846036 45.28491211 150.01000977 C45.2826915 151.24689041 45.28047089 152.48377106 45.27818298 153.75813293 C45.26021866 156.82539227 45.26021866 156.82539227 46.3984375 159.77636719 C48.86157587 160.74548117 48.86157587 160.74548117 51.90234375 161.34667969 C53.03607422 161.60320312 54.16980469 161.85972656 55.33789062 162.12402344 C56.53349609 162.38054687 57.72910156 162.63707031 58.9609375 162.90136719 C60.71374023 163.29775391 60.71374023 163.29775391 62.50195312 163.70214844 C73.63139544 166.17535784 84.00810367 167.01489214 95.3984375 167.02636719 C96.08963684 167.02737427 96.78083618 167.02838135 97.49298096 167.02941895 C117.87767876 167.23452561 117.87767876 167.23452561 136.3984375 159.77636719 C149.02486733 146.461223 151.52793731 120.47258226 151.6484375 102.71386719 C151.6690625 101.95009766 151.6896875 101.18632813 151.7109375 100.39941406 C151.75403787 94.10137316 150.668959 89.24722882 146.2734375 84.46386719 C138.37226667 79.82622344 129.19376554 80.52893044 120.3359375 80.65136719 C119.08876953 80.66039062 117.84160156 80.66941406 116.55664062 80.67871094 C113.50370246 80.7021051 110.45117444 80.73488545 107.3984375 80.77636719 C107.53918701 79.94814453 107.67993652 79.11992188 107.82495117 78.26660156 C108.91749918 71.56782329 109.76152419 65.065981 109.7109375 58.27636719 C109.70602295 57.47030029 109.7011084 56.6642334 109.69604492 55.83374023 C109.50443438 45.96530626 108.29162663 35.37942403 101.3984375 27.77636719 C98.0308507 24.88633549 94.57625069 23.54197788 90.1484375 23.33886719 C86.5591083 23.45040316 86.5591083 23.45040316 84.67797852 25.01098633 Z M3.3984375 82.77636719 C2.99539938 85.45650774 2.85121339 87.73089878 2.88085938 90.41308594 C2.8738501 91.18899078 2.86684082 91.96489563 2.85961914 92.76431274 C2.84200195 95.33119407 2.85367442 97.89697449 2.8671875 100.46386719 C2.86449364 102.24601453 2.86061211 104.02816043 2.85559082 105.81030273 C2.84969075 109.54620348 2.85827494 113.28172181 2.87695312 117.01757812 C2.89974316 121.80979347 2.88662277 126.60111283 2.86266327 131.39329529 C2.84821892 135.07359587 2.85280497 138.75368353 2.86317444 142.43399048 C2.86584551 144.20106105 2.86255862 145.96815087 2.85325623 147.73519897 C2.84311276 150.20387073 2.85855916 152.67108541 2.88085938 155.13964844 C2.87276245 155.87220856 2.86466553 156.60476868 2.85632324 157.35952759 C2.91134352 160.64202742 2.95972788 162.32674465 5.30310059 164.72840881 C8.92409681 166.53940793 12.42149377 166.24880839 16.3984375 166.21386719 C17.20539063 166.23384766 18.01234375 166.25382812 18.84375 166.27441406 C20.01550781 166.27344727 20.01550781 166.27344727 21.2109375 166.27246094 C21.91863281 166.27431396 22.62632812 166.27616699 23.35546875 166.27807617 C26.39798178 165.53090071 27.47677547 164.23871604 29.3984375 161.77636719 C29.79338118 159.12081941 29.94632995 156.87888134 29.91601562 154.22558594 C29.9230249 153.4706485 29.93003418 152.71571106 29.93725586 151.93789673 C29.95483948 149.44617771 29.94321261 146.95559745 29.9296875 144.46386719 C29.93238233 142.73038515 29.93626467 140.99690459 29.94128418 139.26342773 C29.9471797 135.63185218 29.93861476 132.00067038 29.91992188 128.36914062 C29.89713204 123.71492674 29.91025487 119.06163548 29.93421173 114.40745544 C29.94866841 110.82833916 29.94406437 107.24944149 29.93370056 103.6703186 C29.9310329 101.95431407 29.93430443 100.23828967 29.94361877 98.52230835 C29.95378258 96.12338723 29.93828757 93.72595844 29.91601562 91.32714844 C29.92411255 90.61845612 29.93220947 89.90976379 29.94055176 89.17959595 C29.88205296 85.77721159 29.6144005 84.05309444 27.49377441 81.33580017 C25.15363247 79.59417356 24.09028899 79.27273415 21.2109375 79.28027344 C20.42976563 79.27962891 19.64859375 79.27898437 18.84375 79.27832031 C17.63332031 79.30829102 17.63332031 79.30829102 16.3984375 79.33886719 C15.59148437 79.33177734 14.78453125 79.3246875 13.953125 79.31738281 C8.0692172 79.37818033 8.0692172 79.37818033 3.3984375 82.77636719 Z " fill="#1CA9FF" transform="translate(307.6015625,10.2236328125)"/>
<path d="M0 0 C0.92462943 -0.00453111 1.84925886 -0.00906223 2.80190736 -0.01373065 C5.88380301 -0.02633716 8.96552108 -0.02475668 12.04743958 -0.02310181 C14.26395392 -0.02908945 16.48046618 -0.03589554 18.69697571 -0.04345703 C24.70752492 -0.06110156 30.71801716 -0.0658118 36.72858977 -0.0670886 C40.4876583 -0.06851179 44.24671242 -0.07278461 48.00577736 -0.07808304 C60.45428309 -0.09562531 72.90276117 -0.10492392 85.35127779 -0.10342209 C86.35644184 -0.10330222 86.35644184 -0.10330222 87.38191223 -0.10317993 C88.05284774 -0.10309817 88.72378324 -0.10301641 89.41505013 -0.10293217 C100.27928308 -0.10211992 111.14337718 -0.12124525 122.00756999 -0.14945666 C133.18484162 -0.17825007 144.36206253 -0.19162791 155.53937608 -0.19026911 C161.8057145 -0.18976031 168.07189576 -0.1953985 174.33820152 -0.21662521 C180.23572079 -0.23605766 186.1329338 -0.23609766 192.03046417 -0.22159195 C194.18745435 -0.21950888 196.34446395 -0.22417456 198.50142097 -0.23631287 C215.77313587 -0.32716656 230.95478587 1.17306968 244.25764465 13.51742554 C252.89566645 22.76662812 257.09768428 33.59422518 256.94514465 46.14242554 C256.93378479 47.45787354 256.93378479 47.45787354 256.92219543 48.79989624 C256.61616226 60.85693326 252.06019756 69.98427356 244.13264465 78.95492554 C236.22012307 85.92548026 227.37983124 92.37362347 216.40733242 92.40164661 C215.59452074 92.40610446 214.78170907 92.4105623 213.94426674 92.41515523 C212.61311233 92.41487869 212.61311233 92.41487869 211.25506592 92.41459656 C210.30794174 92.41827325 209.36081757 92.42194993 208.38499266 92.42573804 C205.20313357 92.43677366 202.02130713 92.44061854 198.83943176 92.44442749 C196.56115108 92.45069229 194.28287143 92.45733911 192.0045929 92.46434021 C184.51473197 92.48538307 177.02487084 92.49574361 169.5349884 92.50570679 C166.95600944 92.50975442 164.37703058 92.51387134 161.79805183 92.51805687 C151.06896036 92.53492661 140.33987259 92.54956063 129.61077023 92.55680561 C126.82777848 92.55871538 124.04478675 92.56063573 121.26179504 92.56259155 C120.22429631 92.56331716 120.22429631 92.56331716 119.16583801 92.56405743 C107.97021519 92.57235142 96.77469942 92.59767807 85.57912331 92.63017223 C74.07428031 92.6632906 62.56950772 92.68092631 51.06461531 92.68444985 C44.60936015 92.68679906 38.1542742 92.69574298 31.69906425 92.72091103 C25.62269111 92.74421892 19.54659825 92.74841382 13.47019196 92.73814964 C11.24463277 92.73765482 9.01905965 92.74395935 6.79354286 92.75770569 C-9.89938295 92.85501147 -22.23420736 91.33276562 -35.17985535 79.89242554 C-46.5257593 67.01329132 -49.46049707 55.64251925 -48.71452332 38.74203491 C-47.61881217 26.53749842 -39.85946678 16.46214458 -30.72673035 8.83383179 C-21.43232988 2.31800209 -11.14879267 -0.04057232 0 0 Z M-5.49235535 24.26742554 C-5.90016962 27.31583721 -5.79185996 30.21247853 -5.49235535 33.26742554 C-6.50298035 32.58680054 -7.51360535 31.90617554 -8.55485535 31.20492554 C-11.55729314 29.4935969 -12.59799349 29.26742554 -16.24235535 29.26742554 C-19.46300755 30.03635806 -19.46300755 30.03635806 -21.49235535 31.89242554 C-22.99579536 35.46309557 -22.60872214 37.58998198 -21.49235535 41.26742554 C-17.93439152 44.35647079 -17.93439152 44.35647079 -13.49235535 45.26742554 C-15.28127172 47.15049541 -16.96329076 48.59259522 -19.11735535 50.07992554 C-21.69225438 52.1140732 -21.69225438 52.1140732 -22.55485535 55.20492554 C-22.7438634 58.37619366 -22.7438634 58.37619366 -20.80485535 61.07992554 C-18.42321998 63.33282386 -17.65003763 63.91211464 -14.49235535 64.26742554 C-12.08482283 63.53225626 -12.08482283 63.53225626 -9.74235535 62.32992554 C-8.9431366 61.9496521 -8.14391785 61.56937866 -7.32048035 61.17758179 C-6.7171991 60.87723022 -6.11391785 60.57687866 -5.49235535 60.26742554 C-5.57485535 61.48430054 -5.65735535 62.70117554 -5.74235535 63.95492554 C-5.72537719 67.14115947 -5.45962596 68.33026595 -3.92985535 71.26742554 C-1.55157888 73.55091882 -1.55157888 73.55091882 2.00764465 73.89242554 C5.56686819 73.55091882 5.56686819 73.55091882 7.94514465 71.26742554 C10.02449579 67.27507135 9.80995631 64.72652247 9.50764465 60.26742554 C10.17151184 60.59098022 10.83537903 60.91453491 11.5193634 61.24789429 C16.87674057 63.91633243 16.87674057 63.91633243 22.50764465 63.20492554 C24.68181846 61.23545693 24.68181846 61.23545693 26.50764465 58.26742554 C26.5771303 55.26449483 26.5771303 55.26449483 25.50764465 52.26742554 C23.18442763 50.02551153 23.18442763 50.02551153 20.50764465 48.26742554 C19.49025735 47.28512056 18.48168348 46.29272957 17.50764465 45.26742554 C18.43576965 45.01992554 19.36389465 44.77242554 20.32014465 44.51742554 C23.76292564 43.16731535 24.97442583 42.60443122 26.50764465 39.26742554 C26.44203537 35.52769653 26.27109899 33.20706164 23.88264465 30.26742554 C20.40955926 28.80507379 18.12613954 29.37867241 14.50764465 30.26742554 C11.65515692 31.70961634 11.65515692 31.70961634 9.50764465 33.26742554 C9.59465637 32.37990601 9.59465637 32.37990601 9.6834259 31.47445679 C9.93729911 27.02804891 9.9850093 24.93573604 7.32014465 21.20492554 C4.70617251 19.16182758 4.70617251 19.16182758 2.00764465 18.64242554 C-1.81632207 19.59841722 -3.20928081 21.07112119 -5.49235535 24.26742554 Z M62.50764465 24.26742554 C62.09983038 27.31583721 62.20814004 30.21247853 62.50764465 33.26742554 C61.49701965 32.58680054 60.48639465 31.90617554 59.44514465 31.20492554 C56.44270686 29.4935969 55.40200651 29.26742554 51.75764465 29.26742554 C48.53699245 30.03635806 48.53699245 30.03635806 46.50764465 31.89242554 C45.00420464 35.46309557 45.39127786 37.58998198 46.50764465 41.26742554 C50.06560848 44.35647079 50.06560848 44.35647079 54.50764465 45.26742554 C52.71872828 47.15049541 51.03670924 48.59259522 48.88264465 50.07992554 C46.30774562 52.1140732 46.30774562 52.1140732 45.44514465 55.20492554 C45.2561366 58.37619366 45.2561366 58.37619366 47.19514465 61.07992554 C49.57678002 63.33282386 50.34996237 63.91211464 53.50764465 64.26742554 C55.91517717 63.53225626 55.91517717 63.53225626 58.25764465 62.32992554 C59.0568634 61.9496521 59.85608215 61.56937866 60.67951965 61.17758179 C61.2828009 60.87723022 61.88608215 60.57687866 62.50764465 60.26742554 C62.42514465 61.48430054 62.34264465 62.70117554 62.25764465 63.95492554 C62.27462281 67.14115947 62.54037404 68.33026595 64.07014465 71.26742554 C66.44842112 73.55091882 66.44842112 73.55091882 70.00764465 73.89242554 C73.56686819 73.55091882 73.56686819 73.55091882 75.94514465 71.26742554 C78.02449579 67.27507135 77.80995631 64.72652247 77.50764465 60.26742554 C78.17151184 60.59098022 78.83537903 60.91453491 79.5193634 61.24789429 C84.87674057 63.91633243 84.87674057 63.91633243 90.50764465 63.20492554 C92.68181846 61.23545693 92.68181846 61.23545693 94.50764465 58.26742554 C94.5771303 55.26449483 94.5771303 55.26449483 93.50764465 52.26742554 C91.18442763 50.02551153 91.18442763 50.02551153 88.50764465 48.26742554 C87.49025735 47.28512056 86.48168348 46.29272957 85.50764465 45.26742554 C86.43576965 45.01992554 87.36389465 44.77242554 88.32014465 44.51742554 C91.76292564 43.16731535 92.97442583 42.60443122 94.50764465 39.26742554 C94.44203537 35.52769653 94.27109899 33.20706164 91.88264465 30.26742554 C88.40955926 28.80507379 86.12613954 29.37867241 82.50764465 30.26742554 C79.65515692 31.70961634 79.65515692 31.70961634 77.50764465 33.26742554 C77.59465637 32.37990601 77.59465637 32.37990601 77.6834259 31.47445679 C77.93729911 27.02804891 77.9850093 24.93573604 75.32014465 21.20492554 C72.70617251 19.16182758 72.70617251 19.16182758 70.00764465 18.64242554 C66.18367793 19.59841722 64.79071919 21.07112119 62.50764465 24.26742554 Z M130.50764465 24.26742554 C130.09983038 27.31583721 130.20814004 30.21247853 130.50764465 33.26742554 C129.49701965 32.58680054 128.48639465 31.90617554 127.44514465 31.20492554 C124.44270686 29.4935969 123.40200651 29.26742554 119.75764465 29.26742554 C116.53699245 30.03635806 116.53699245 30.03635806 114.50764465 31.89242554 C113.00420464 35.46309557 113.39127786 37.58998198 114.50764465 41.26742554 C118.06560848 44.35647079 118.06560848 44.35647079 122.50764465 45.26742554 C120.71872828 47.15049541 119.03670924 48.59259522 116.88264465 50.07992554 C114.30774562 52.1140732 114.30774562 52.1140732 113.44514465 55.20492554 C113.2561366 58.37619366 113.2561366 58.37619366 115.19514465 61.07992554 C117.57678002 63.33282386 118.34996237 63.91211464 121.50764465 64.26742554 C123.91517717 63.53225626 123.91517717 63.53225626 126.25764465 62.32992554 C127.0568634 61.9496521 127.85608215 61.56937866 128.67951965 61.17758179 C129.2828009 60.87723022 129.88608215 60.57687866 130.50764465 60.26742554 C130.42514465 61.48430054 130.34264465 62.70117554 130.25764465 63.95492554 C130.27462281 67.14115947 130.54037404 68.33026595 132.07014465 71.26742554 C134.44842112 73.55091882 134.44842112 73.55091882 138.00764465 73.89242554 C141.56686819 73.55091882 141.56686819 73.55091882 143.94514465 71.26742554 C146.02449579 67.27507135 145.80995631 64.72652247 145.50764465 60.26742554 C146.17151184 60.59098022 146.83537903 60.91453491 147.5193634 61.24789429 C152.87674057 63.91633243 152.87674057 63.91633243 158.50764465 63.20492554 C160.68181846 61.23545693 160.68181846 61.23545693 162.50764465 58.26742554 C162.5771303 55.26449483 162.5771303 55.26449483 161.50764465 52.26742554 C159.18442763 50.02551153 159.18442763 50.02551153 156.50764465 48.26742554 C155.49025735 47.28512056 154.48168348 46.29272957 153.50764465 45.26742554 C154.43576965 45.01992554 155.36389465 44.77242554 156.32014465 44.51742554 C159.76292564 43.16731535 160.97442583 42.60443122 162.50764465 39.26742554 C162.44203537 35.52769653 162.27109899 33.20706164 159.88264465 30.26742554 C156.40955926 28.80507379 154.12613954 29.37867241 150.50764465 30.26742554 C147.65515692 31.70961634 147.65515692 31.70961634 145.50764465 33.26742554 C145.59465637 32.37990601 145.59465637 32.37990601 145.6834259 31.47445679 C145.93729911 27.02804891 145.9850093 24.93573604 143.32014465 21.20492554 C140.70617251 19.16182758 140.70617251 19.16182758 138.00764465 18.64242554 C134.18367793 19.59841722 132.79071919 21.07112119 130.50764465 24.26742554 Z M198.50764465 24.26742554 C198.09983038 27.31583721 198.20814004 30.21247853 198.50764465 33.26742554 C197.49701965 32.58680054 196.48639465 31.90617554 195.44514465 31.20492554 C192.44270686 29.4935969 191.40200651 29.26742554 187.75764465 29.26742554 C184.53699245 30.03635806 184.53699245 30.03635806 182.50764465 31.89242554 C180.98335425 35.51261524 181.33018813 37.53881321 182.50764465 41.26742554 C184.64129054 43.30431899 186.94676917 44.81648564 189.50764465 46.26742554 C188.74451965 46.84492554 187.98139465 47.42242554 187.19514465 48.01742554 C183.87374278 50.76525328 183.87374278 50.76525328 181.50764465 54.26742554 C181.6377407 57.45477858 181.93694774 59.47932028 183.82014465 62.07992554 C185.80844892 63.47910261 187.09545137 63.93204037 189.50764465 64.26742554 C191.91517717 63.53225626 191.91517717 63.53225626 194.25764465 62.32992554 C195.0568634 61.9496521 195.85608215 61.56937866 196.67951965 61.17758179 C197.2828009 60.87723022 197.88608215 60.57687866 198.50764465 60.26742554 C198.42514465 61.48430054 198.34264465 62.70117554 198.25764465 63.95492554 C198.27462281 67.14115947 198.54037404 68.33026595 200.07014465 71.26742554 C202.44842112 73.55091882 202.44842112 73.55091882 206.00764465 73.89242554 C209.56686819 73.55091882 209.56686819 73.55091882 211.94514465 71.26742554 C214.02449579 67.27507135 213.80995631 64.72652247 213.50764465 60.26742554 C214.17151184 60.59098022 214.83537903 60.91453491 215.5193634 61.24789429 C220.87674057 63.91633243 220.87674057 63.91633243 226.50764465 63.20492554 C228.68181846 61.23545693 228.68181846 61.23545693 230.50764465 58.26742554 C230.5771303 55.26449483 230.5771303 55.26449483 229.50764465 52.26742554 C227.18442763 50.02551153 227.18442763 50.02551153 224.50764465 48.26742554 C223.49025735 47.28512056 222.48168348 46.29272957 221.50764465 45.26742554 C222.43576965 45.01992554 223.36389465 44.77242554 224.32014465 44.51742554 C227.76292564 43.16731535 228.97442583 42.60443122 230.50764465 39.26742554 C230.44203537 35.52769653 230.27109899 33.20706164 227.88264465 30.26742554 C224.40955926 28.80507379 222.12613954 29.37867241 218.50764465 30.26742554 C215.65515692 31.70961634 215.65515692 31.70961634 213.50764465 33.26742554 C213.59465637 32.37990601 213.59465637 32.37990601 213.6834259 31.47445679 C213.93729911 27.02804891 213.9850093 24.93573604 211.32014465 21.20492554 C208.70617251 19.16182758 208.70617251 19.16182758 206.00764465 18.64242554 C202.18367793 19.59841722 200.79071919 21.07112119 198.50764465 24.26742554 Z " fill="#8055FF" transform="translate(240.4923553466797,408.7325744628906)"/>
</svg>
